<?xml version="1.0" encoding="utf-8"?>
<!-- Generator: Adobe Illustrator 16.0.0, SVG Export Plug-In . SVG Version: 6.00 Build 0)  -->
<!DOCTYPE svg PUBLIC "-//W3C//DTD SVG 1.1//EN" "http://www.w3.org/Graphics/SVG/1.1/DTD/svg11.dtd">
<svg version="1.1" id="Capa_1" xmlns="http://www.w3.org/2000/svg" xmlns:xlink="http://www.w3.org/1999/xlink" x="0px" y="0px"
	 width="616px" height="560px" viewBox="0 0 616 560" enable-background="new 0 0 616 560" xml:space="preserve">
<g>
	<polygon fill="#881F1B" points="76.698,35.451 116.417,132.099 176.49,209.715 203.3,197.303 155.638,128.293 	"/>
	<polygon fill="#881F1B" points="561.369,35.484 521.65,132.131 461.577,209.748 434.767,197.336 482.43,128.326 	"/>
	<polygon fill="#DA641E" points="76.698,35.451 116.417,130.775 93.579,157.088 64.783,79.638 	"/>
	<polygon fill="#DA641E" points="561.369,35.484 521.65,130.808 544.488,157.121 573.285,79.67 	"/>
	<polyline fill="#ED7D33" points="202.887,194.654 176.242,209.219 149.557,252.909 161.205,283.361 70.213,357.501 
		216.236,301.894 276.442,346.91 295.808,405.161 319.477,399.867 319.477,274.754 	"/>
	<polygon fill="#EF8436" points="319.477,140.375 238.383,157.585 203.135,194.654 215.631,301.894 319.477,275.285 	"/>
	<polygon fill="#DE6820" points="132.929,333.618 142.155,378.879 70.213,357.501 	"/>
	<polygon fill="#D6551C" points="161.267,283.361 149.557,252.909 123.46,314.115 	"/>
	<polygon fill="#DE6820" points="276.45,346.91 296.309,405.161 286.196,419.983 246,406.711 	"/>
	<polygon fill="#929292" points="319.477,495.19 319.477,528.951 239.543,507.106 182.2,481.289 161.142,427.67 234.34,456.457 	"/>
	<polygon fill="#C5C5C5" points="141.407,378.685 161.267,427.67 70.213,357.501 	"/>
	<polygon fill="#D6CCCA" points="247.322,406.487 234.082,457.458 161.267,427.67 141.407,378.685 	"/>
	<polygon fill="#6A6A6A" points="247.322,406.239 271.318,473.814 319.477,495.19 319.477,471.359 283.4,462.92 	"/>
	<polygon fill="#9F9F9F" points="319.477,439.585 319.477,463.416 278.563,455.426 247.074,406.239 285.758,419.726 	"/>
	<polygon fill="#EC7225" points="276.442,346.91 247.49,406.711 141.407,378.685 132.139,333.92 216.236,301.894 	"/>
	<polygon fill="#A9A9A9" points="161.142,427.67 70.213,357.501 176.708,467.303 	"/>
	<polygon fill="#191816" points="319.477,463.416 318.653,473.346 283.4,462.92 278.563,455.426 	"/>
	<polygon fill="#191816" points="319.477,399.867 295.808,405.161 285.758,419.726 319.477,439.585 	"/>
	<polygon fill="#C5BBB9" points="247.322,406.239 234.082,457.458 271.318,473.814 	"/>
	<polygon points="270.552,342.506 215.216,288.655 172.519,318.775 216.871,301.563 	"/>
	<polygon fill="#E86C26" points="176.49,209.715 116.417,130.775 93.579,157.088 147.986,256.591 	"/>
	<polygon fill="#ED7330" points="76.698,35.451 155.638,128.293 202.128,196.385 240.04,159.571 191.385,90.561 115.92,38.927 	"/>
	<polyline fill="#ED7D33" points="435.429,195.205 461.949,209.769 488.573,253.459 476.895,283.912 567.871,358.051 
		421.839,302.443 361.63,347.461 342.509,405.711 319.088,400.418 319.088,275.304 	"/>
	<polygon fill="#EF8436" points="319.477,140.375 399.932,158.812 435.056,195.881 422.747,303.121 317.221,275.863 	"/>
	<polygon fill="#DE6820" points="505.193,333.674 495.704,378.966 567.855,357.533 	"/>
	<polygon fill="#D6551C" points="476.895,283.912 488.512,252.941 514.607,315.334 	"/>
	<polygon fill="#DE6820" points="361.618,346.943 341.759,405.193 351.826,420.264 391.118,406.271 	"/>
	<polygon fill="#929292" points="319.088,495.223 319.088,528.984 398.772,507.139 455.992,481.322 476.987,427.703 
		403.986,455.459 	"/>
	<polygon fill="#C5C5C5" points="496.66,378.717 476.801,427.703 567.855,357.533 	"/>
	<polygon fill="#D6CCCA" points="390.746,406.52 403.986,457.49 476.801,427.703 496.66,378.717 	"/>
	<polygon fill="#6A6A6A" points="390.746,406.271 366.998,473.848 319.088,495.223 319.088,471.393 354.916,462.953 	"/>
	<polygon fill="#9F9F9F" points="319.088,439.617 319.088,463.449 359.752,455.459 391.118,406.271 352.62,419.758 	"/>
	<polygon fill="#EC7225" points="361.626,346.943 390.746,406.52 496.66,378.717 505.928,333.953 421.832,301.926 	"/>
	<polygon fill="#A9A9A9" points="476.926,427.703 567.855,357.533 461.359,467.336 	"/>
	<polygon fill="#191816" points="318.653,463.416 318.653,473.346 354.916,462.953 359.876,455.459 	"/>
	<polygon fill="#191816" points="319.088,399.9 342.507,405.193 352.682,419.758 319.088,439.617 	"/>
	<polygon fill="#C5BBB9" points="390.746,406.271 403.986,457.49 366.75,473.848 	"/>
	<polygon points="367.516,346.943 422.852,293.092 465.549,323.213 421.196,306 	"/>
	<polygon fill="#E86C26" points="461.577,209.748 521.65,130.808 544.488,157.121 490.064,256.654 	"/>
	<polygon fill="#ED7330" points="561.369,35.484 482.43,128.326 435.222,196.678 398.028,159.604 446.683,90.593 522.148,38.959 	
		"/>
</g>
</svg>
