<?xml version="1.0" encoding="UTF-8" standalone="no"?>
<svg
   xmlns:dc="http://purl.org/dc/elements/1.1/"
   xmlns:cc="http://creativecommons.org/ns#"
   xmlns:rdf="http://www.w3.org/1999/02/22-rdf-syntax-ns#"
   xmlns:svg="http://www.w3.org/2000/svg"
   xmlns="http://www.w3.org/2000/svg"
   height="443"
   width="800"
   xml:space="preserve"
   viewBox="0 0 800 443"
   y="0px"
   x="0px"
   id="Layer_1"
   version="1.1"><metadata
   id="metadata3763"><rdf:RDF><cc:Work
       rdf:about=""><dc:format>image/svg+xml</dc:format><dc:type
         rdf:resource="http://purl.org/dc/dcmitype/StillImage" /><dc:title></dc:title></cc:Work></rdf:RDF></metadata><defs
   id="defs3761" />
<style
   id="style3752"
   type="text/css">
	.st0{fill:#F1F1F1;}
</style>
<g
   transform="matrix(1.18504,0,0,1.2181689,-96.34852,-293.17639)"
   id="g3756">
	<path
   style="fill:#f1f1f1"
   id="path3754"
   d="m 90,277.5 c 32.4,-31 123.1,-31 161.1,-1.4 19.7,15.5 23.9,38 46.5,50.7 26.7,15.5 54.9,9.9 84.5,14.1 25.3,4.2 40.8,11.3 50.7,33.8 8.4,21.1 12.7,33.8 35.2,43.6 38,18.3 107,0 133.7,36.6 8.4,9.9 7,25.3 14.1,36.6 9.9,15.5 25.3,18.5 40.8,24.1 33.8,15.5 61.9,67.3 92.9,80.3 H 90 Z"
   class="st0" />
</g>
</svg>