<?xml version="1.0" encoding="utf-8"?>
<!-- Generator: Adobe Illustrator 22.0.0, SVG Export Plug-In . SVG Version: 6.00 Build 0)  -->
<svg version="1.1" id="Layer_1" xmlns="http://www.w3.org/2000/svg" xmlns:xlink="http://www.w3.org/1999/xlink" x="0px" y="0px"
	 viewBox="0 0 800 800" style="enable-background:new 0 0 800 800;" xml:space="preserve">
<style type="text/css">
	.st0{fill:#F1F1F1;}
</style>
<g>
	<path class="st0" d="M90,277.5c32.4-31,123.1-31,161.1-1.4c19.7,15.5,23.9,38,46.5,50.7c26.7,15.5,54.9,9.9,84.5,14.1
		c25.3,4.2,40.8,11.3,50.7,33.8c8.4,21.1,12.7,33.8,35.2,43.6c38,18.3,107,0,133.7,36.6c8.4,9.9,7,25.3,14.1,36.6
		c9.9,15.5,25.3,18.5,40.8,24.1c33.8,15.5,61.9,67.3,92.9,80.3H90V277.5z"/>
</g>
</svg>
