<?xml version="1.0" encoding="utf-8"?>
<!-- Generator: Adobe Illustrator 16.0.0, SVG Export Plug-In . SVG Version: 6.00 Build 0)  -->
<!DOCTYPE svg PUBLIC "-//W3C//DTD SVG 1.1//EN" "http://www.w3.org/Graphics/SVG/1.1/DTD/svg11.dtd">
<svg version="1.1" id="Capa_1" xmlns="http://www.w3.org/2000/svg" xmlns:xlink="http://www.w3.org/1999/xlink" x="0px" y="0px"
	 width="512px" height="512px" viewBox="0 0 512 512" enable-background="new 0 0 512 512" xml:space="preserve">
<g>
	<path fill="#FFFFFF" d="M358.746,209.705v-96.841c0-54.338-47.611-98.55-106.167-98.55c-58.573,0-106.167,44.212-106.167,98.55
		v96.841H69.95v220.842V498.5h373.747v-67.953V209.705H358.746z M163.392,112.864c0-44.957,39.994-81.552,89.187-81.552
		c49.175,0,89.187,36.595,89.187,81.552v96.841H163.392V112.864z M426.718,481.521H86.93v-33.996h339.788V481.521z M86.93,430.547
		V226.685h59.482h212.334h67.972v203.862H86.93z"/>
	<path fill="#FFFFFF" d="M256.832,277.659c-18.724,0-33.995,15.233-33.995,33.958v50.975c0,18.725,15.271,33.978,33.995,33.978
		c18.725,0,33.959-15.253,33.959-33.978v-50.975C290.791,292.893,275.557,277.659,256.832,277.659z M273.813,362.592
		c0,9.381-7.617,16.98-16.98,16.98c-9.38,0-16.997-7.6-16.997-16.98v-50.975c0-9.361,7.617-16.979,16.997-16.979
		c9.363,0,16.98,7.617,16.98,16.979V362.592z"/>
</g>
</svg>
