<?xml version="1.0" encoding="utf-8"?>
<!-- Generator: Adobe Illustrator 16.0.0, SVG Export Plug-In . SVG Version: 6.00 Build 0)  -->
<!DOCTYPE svg PUBLIC "-//W3C//DTD SVG 1.1//EN" "http://www.w3.org/Graphics/SVG/1.1/DTD/svg11.dtd">
<svg version="1.1" xmlns="http://www.w3.org/2000/svg" xmlns:xlink="http://www.w3.org/1999/xlink" x="0px" y="0px" width="800px"
	 height="800px" viewBox="0 0 800 800" enable-background="new 0 0 800 800" xml:space="preserve">
<g id="Capa_1" display="none">
	<g display="inline">
		<g>
			<g>
				<path fill="#989898" d="M521.194,348.031l-75.879-78.842c-1.087-1.107-2.574-1.743-4.122-1.743h-113.06
					c-12.653,0-22.979,10.295-22.979,22.928v80.145H259.33c-9.475,0-17.155,7.711-17.155,17.165v85.948
					c0,9.454,7.68,17.145,17.155,17.145h45.825v51.577c0,12.612,10.326,22.887,22.979,22.887h171.691
					c12.664,0,22.958-10.264,22.958-22.887V352C522.784,350.523,522.22,349.108,521.194,348.031z M442.608,282.898l62.282,64.712
					h-62.282V282.898z M259.33,479.333c-3.138,0-5.711-2.563-5.711-5.701v-85.948c0-3.138,2.574-5.701,5.711-5.701h154.66
					c3.158,0,5.711,2.563,5.711,5.701v85.948c0,3.138-2.553,5.701-5.711,5.701H259.33z M511.33,542.353
					c0,6.296-5.147,11.433-11.505,11.433H328.134c-6.378,0-11.525-5.137-11.525-11.433v-51.577h97.381
					c9.464,0,17.175-7.69,17.175-17.145v-85.948c0-9.454-7.711-17.165-17.175-17.165h-97.381v-80.145
					c0-6.327,5.147-11.484,11.525-11.484h103.031v74.464c0,3.158,2.543,5.711,5.722,5.711h74.443V542.353z"/>
			</g>
		</g>
		<g>
			<g>
				<path fill="#989898" d="M310.641,412.795c-1.907-2.481-4.266-4.081-7.096-4.83c-1.846-0.482-5.763-0.738-11.813-0.738h-15.914
					v49.208h9.926v-18.56h6.48c4.481,0,7.916-0.236,10.295-0.708c1.743-0.39,3.466-1.159,5.168-2.338
					c1.682-1.169,3.056-2.789,4.163-4.85c1.097-2.061,1.62-4.594,1.62-7.619C313.471,418.455,312.548,415.266,310.641,412.795z
					 M302.13,426.32c-0.738,1.107-1.784,1.907-3.097,2.42c-1.323,0.513-3.938,0.779-7.854,0.779h-5.435v-13.966h4.789
					c3.579,0,5.968,0.113,7.157,0.349c1.589,0.277,2.933,1.005,3.989,2.174c1.056,1.148,1.559,2.646,1.559,4.44
					C303.237,423.951,302.878,425.233,302.13,426.32z"/>
			</g>
		</g>
		<g>
			<g>
				<path fill="#989898" d="M361.233,420.68c-1.066-3.148-2.635-5.804-4.686-7.978c-2.082-2.164-4.532-3.671-7.424-4.522
					c-2.143-0.636-5.281-0.954-9.352-0.954h-18.17v49.208h18.693c3.681,0,6.604-0.359,8.798-1.056
					c2.922-0.923,5.26-2.235,6.983-3.917c2.287-2.215,4.03-5.106,5.26-8.695c1.015-2.933,1.538-6.419,1.538-10.469
					C362.874,427.694,362.31,423.818,361.233,420.68z M351.574,440.88c-0.656,2.194-1.538,3.784-2.604,4.737
					c-1.056,0.974-2.399,1.651-3.999,2.051c-1.22,0.308-3.24,0.472-6.009,0.472h-7.414l0,0v-32.587h4.481
					c4.02,0,6.747,0.154,8.121,0.472c1.856,0.41,3.384,1.189,4.594,2.317c1.2,1.148,2.174,2.728,2.83,4.768
					c0.667,2.041,1.025,4.953,1.025,8.757S352.241,438.666,351.574,440.88z"/>
			</g>
		</g>
		<g>
			<g>
				<polygon fill="#989898" points="405.079,415.553 405.079,407.227 371.323,407.227 371.323,456.436 381.27,456.436 
					381.27,435.528 401.818,435.528 401.818,427.202 381.27,427.202 381.27,415.553 				"/>
			</g>
		</g>
	</g>
</g>
<g id="Capa_2" display="none">
	<g transform="translate(1 1)" display="inline">
		<g>
			<g>
				<path fill="#989898" d="M422.485,525.596h50.216c12.261,0,22.298-10.038,22.298-22.308v-16.735h15.732l42.837,26.778
					c0.568,0.553,1.684,1.112,2.782,1.112h22.326c3.349,0,5.563-2.228,5.563-5.577V397.302c0-3.344-2.214-5.582-5.563-5.582h-22.326
					c-1.098,0-1.656,0.563-2.782,1.121l-42.837,26.778H495v-16.735c0-12.275-10.038-22.313-22.298-22.313H354.294l25.808-27.89
					h10.87c3.188,6.537,9.943,11.154,17.568,11.154h50.197c10.615,0,19.536-8.926,19.536-19.521v-16.735
					c0-10.605-8.921-19.522-19.536-19.522h-50.197c-7.625,0-14.38,4.617-17.568,11.154h-23.15c-1.674,0-3.339,0.559-3.897,1.675
					l-55.344,59.686h-6.017l-13.377-17.852c-2.252-2.791-5.591-4.465-8.95-4.465h-8.363c-12.261,0-22.308,10.047-22.308,22.317
					v122.716c0,12.271,10.047,22.308,22.308,22.308h50.216 M408.541,319.211h50.197c4.484,0,8.382,3.903,8.382,8.368v16.735
					c0,4.46-3.897,8.368-8.382,8.368h-50.197c-4.475,0-8.372-3.907-8.372-8.368v-16.735
					C400.168,323.114,404.066,319.211,408.541,319.211z M370.056,330.37h18.968v11.149H377.87c-1.684,0-2.8,0.558-4.465,1.679
					l-34.587,37.374h-15.061L370.056,330.37z M483.846,503.288c0,6.135-5.014,11.154-11.145,11.154h-55.798h-89.25h-55.779
					c-6.121,0-11.154-5.019-11.154-11.154h27.89c3.339,0,5.582-2.232,5.582-5.572c0-3.354-2.242-5.582-5.582-5.582h-27.89v-11.158
					h16.735c3.359,0,5.582-2.228,5.582-5.582c0-3.349-2.223-5.577-5.582-5.577h-16.735v-89.245c0-6.135,5.033-11.159,11.173-11.159
					h8.344l15.07,20.08c1.126,1.675,2.8,2.228,4.465,2.228h11.154h30.68h131.094c6.13,0,11.145,5.023,11.145,11.164v22.313v55.779
					V503.288z M495,430.769h11.154v44.625H495V430.769z M573.086,503.288h-15.052l-40.718-25.108v-49.639l40.718-25.657h15.052
					V503.288z"/>
				<path fill="#989898" d="M439.23,447.509c12.27,0,22.308-10.042,22.308-22.312c0-12.271-10.038-22.313-22.308-22.313
					c-12.289,0-22.327,10.042-22.327,22.313C416.904,437.467,426.941,447.509,439.23,447.509z M439.23,414.038
					c6.13,0,11.145,5.019,11.145,11.159c0,6.135-5.014,11.154-11.145,11.154c-6.149,0-11.164-5.019-11.164-11.154
					C428.067,419.057,433.081,414.038,439.23,414.038z"/>
				<path fill="#989898" d="M461.538,469.817h-89.25c-3.349,0-5.582,2.228-5.582,5.577v22.317c0,3.344,2.233,5.577,5.582,5.577
					h89.25c3.34,0,5.582-2.232,5.582-5.577v-22.317C467.12,472.045,464.878,469.817,461.538,469.817z M455.957,492.134H377.87
					v-11.158h78.086V492.134L455.957,492.134z"/>
			</g>
		</g>
	</g>
</g>
<g id="Capa_3" display="none">
	<g display="inline">
		<g>
			<g>
				<path fill="#989898" d="M376.955,401.28H349.03v-27.662c0-3.032-2.486-5.528-5.538-5.528c-3.042,0-5.547,2.496-5.547,5.528
					v27.662h-27.35c-3.071,0-5.558,2.486-5.558,5.528c0,3.042,2.487,5.533,5.558,5.533h27.35v27.647
					c0,3.042,2.505,5.534,5.547,5.534c3.052,0,5.538-2.492,5.538-5.534v-27.647h27.925c3.033,0,5.538-2.491,5.538-5.533
					C382.493,403.766,379.988,401.28,376.955,401.28z"/>
				<path fill="#989898" d="M443.043,395.746l-1.931,1.931c-4.437,4.427-4.437,11.34,0,15.771c2.223,1.93,4.973,3.037,7.742,3.037
					s5.518-1.107,7.741-3.315l1.931-1.94c4.426-4.422,4.426-11.34,0-15.757C454.11,391.046,447.197,391.319,443.043,395.746z"/>
				<path fill="#989898" d="M471.261,366.153l-1.677,2.214c-4.407,4.426-4.407,11.339,0,15.767c2.223,1.935,4.982,3.042,7.742,3.042
					c2.788,0,5.538-1.107,7.741-3.32l1.95-1.941c4.427-4.421,4.427-11.33,0-15.762C482.591,361.727,475.688,361.727,471.261,366.153
					z"/>
				<path fill="#989898" d="M471.515,425.065l-1.931,1.931c-4.407,4.427-4.407,11.34,0,15.761c2.223,2.214,4.982,3.32,7.742,3.32
					c2.788,0,5.538-1.106,7.741-3.32l1.95-1.94c4.427-4.417,4.427-11.33,0-15.752C482.864,420.639,475.688,420.639,471.515,425.065z
					"/>
				<path fill="#989898" d="M501.682,395.746l-1.95,1.931c-4.436,4.427-4.436,11.34,0,15.771c2.223,2.208,4.973,3.32,7.742,3.32
					s5.548-1.112,7.761-3.32l1.931-1.936c4.427-4.427,4.427-11.34,0-15.767C513.022,391.319,505.816,391.319,501.682,395.746z"/>
				<path fill="#989898" d="M551.175,379.98l-3.305-13.827c0-0.272,0-0.272,0-0.55c-8.317-25.171-31.542-42.034-57.811-41.766
					h-4.436c-5.509,0-11.057,0.838-17.112,2.496l-29.895,8.848c-5.519,1.652-11.613,2.491-17.96,2.491h-20.193
					c-6.367,0-12.451-0.839-17.97-2.491l-29.875-8.848c-5.821-1.375-11.613-2.214-17.141-2.214h-4.173
					c-26.268,0-49.474,16.869-57.781,41.761c0,0.272,0,0.272,0,0.546l-3.334,13.831c-8.288,35.398-12.168,72.177-11.038,109.238
					l0.526,21.012c0.293,8.297,4.164,16.317,10.511,21.855c5.538,4.973,12.734,7.464,19.9,7.464c1.122,0,1.97,0,3.072-0.273
					l6.337-0.556c15.786-1.663,29.895-11.067,37.071-25.171l10.228-19.35c8.581-16.595,25.459-26.828,43.975-26.828h44.257
					c19.082,0,36.486,11.057,44.804,28.208l8.024,16.863c7.186,14.938,21.285,24.615,37.617,26.277l2.75,0.273
					c8.288,0.829,16.576-1.936,22.952-7.469c6.357-5.523,10.218-13.548,10.511-22.119l0.546-20.739
					C563.325,452.708,559.746,415.934,551.175,379.98z M551.175,488.945l-0.546,20.739c-0.273,5.534-2.506,10.506-6.64,14.104
					c-4.164,3.593-9.117,5.25-14.655,4.699l-2.779-0.278c-12.432-1.106-23.216-8.848-28.754-20.188l-8.015-16.868
					c-9.955-20.745-31.532-34.283-54.758-34.283h-44.257c-22.68,0-43.418,12.714-53.91,32.908l-10.257,19.345
					c-5.499,10.511-16.303,17.979-28.178,19.086l-6.367,0.556c-5.275,0.551-10.521-1.106-14.655-4.7
					c-4.173-3.598-6.377-8.575-6.65-14.109l-0.565-21.012c-1.092-35.955,2.486-71.914,10.511-106.475l3.335-13.553
					c6.922-20.193,25.711-33.736,47.27-33.736h4.173c4.407,0,9.117,0.556,13.807,1.925l29.875,8.868
					c6.649,1.926,13.826,3.032,21.304,3.032h20.193c7.449,0,14.645-1.106,21.295-3.032l29.855-8.868
					c4.7-1.37,9.38-1.925,14.099-1.925h4.437c0.263,0,0.263,0,0.556,0c20.729,0,39.792,13.826,46.743,34.014l3.296,13.553
					C548.679,417.314,552.287,453.269,551.175,488.945z"/>
			</g>
		</g>
	</g>
</g>
<g id="Capa_4" display="none">
	<polygon display="inline" fill="#989898" points="535.583,399.248 422.367,399.248 422.367,286.037 406.429,286.037 
		406.429,399.248 293.213,399.248 293.213,415.206 406.429,415.206 406.429,528.417 422.367,528.417 422.367,415.206 
		535.583,415.206 	"/>
</g>
<g id="Capa_5" display="none">
	<path display="inline" fill="#989898" d="M459.057,298.08c-21.088,0-40.833,9.565-53.964,25.563
		c-13.173-15.998-32.904-25.563-54.006-25.563c-38.554,0-69.906,31.366-69.906,69.92c0,30.191,18.011,65.096,53.502,103.775
		c27.297,29.744,57.013,52.803,65.473,59.166l4.937,3.665l4.88-3.665c8.474-6.362,38.204-29.422,65.501-59.166
		c35.519-38.68,53.502-73.584,53.502-103.775C528.977,329.446,497.625,298.08,459.057,298.08z"/>
</g>
<g id="Capa_6" display="none">
	<g display="inline">
		<g>
			<path fill="#989898" d="M539.973,379.134l-70.826-70.848c-1.744-1.756-3.834-2.634-6.238-2.634c-2.392,0-4.458,0.877-6.226,2.634
				c-1.744,1.744-2.623,3.835-2.623,6.227v35.418h-30.982c-65.789,0-106.116,18.598-121.064,55.772
				c-4.898,12.36-7.37,27.713-7.37,46.081c0,15.295,5.891,36.101,17.581,62.392c0.301,0.659,0.774,1.768,1.456,3.315
				c0.694,1.583,1.329,2.97,1.884,4.147c0.565,1.202,1.167,2.23,1.801,3.062c1.086,1.559,2.392,2.333,3.871,2.333
				c1.375,0,2.46-0.462,3.257-1.375c0.787-0.913,1.156-2.068,1.156-3.465c0-0.821-0.127-2.033-0.312-3.651
				c-0.254-1.629-0.369-2.703-0.369-3.257c-0.475-6.261-0.682-11.945-0.682-17.016c0-9.334,0.796-17.651,2.403-25.045
				c1.617-7.37,3.858-13.77,6.722-19.165c2.866-5.394,6.551-10.05,11.067-13.966c4.505-3.927,9.369-7.115,14.579-9.623
				c5.222-2.483,11.367-4.447,18.414-5.891c7.07-1.42,14.163-2.414,21.302-2.97c7.162-0.554,15.248-0.82,24.305-0.82h30.982v35.43
				c0,2.379,0.878,4.459,2.623,6.215c1.768,1.755,3.834,2.634,6.226,2.634c2.403,0,4.459-0.879,6.238-2.634l70.826-70.86
				c1.767-1.744,2.634-3.812,2.634-6.203C542.606,382.958,541.739,380.902,539.973,379.134z"/>
		</g>
	</g>
</g>
<g id="Capa_7">
	<g>
		<g>
			<g>
				<g>
					<path fill="#989898" d="M518.667,510.802l-19.65-32.745c-9.075-15.112-13.858-32.402-13.858-50.035v-28.673
						c0-44.153-35.938-80.097-80.072-80.097c-44.16,0-80.098,35.944-80.098,80.097v28.673c0,17.633-4.783,34.923-13.846,50.035
						l-19.636,32.745c-1.073,1.757-1.112,3.969-0.103,5.747c1.034,1.803,2.947,2.908,4.99,2.908h217.36
						c2.068,0,3.969-1.099,4.99-2.908C519.753,514.771,519.727,512.56,518.667,510.802z M306.479,508.022l14.479-24.083
						c10.122-16.883,15.486-36.223,15.486-55.917v-28.673c0-37.87,30.78-68.644,68.645-68.644c37.838,0,68.644,30.773,68.644,68.644
						v28.673c0,19.694,5.326,39.034,15.461,55.917l14.453,24.083H306.479L306.479,508.022z"/>
				</g>
			</g>
		</g>
		<g>
			<g>
				<g>
					<path fill="#989898" d="M405.088,279.216c-12.617,0-22.907,10.271-22.907,22.881v22.881c0,3.161,2.585,5.727,5.74,5.727
						s5.688-2.566,5.688-5.727v-22.881c0-6.315,5.145-11.428,11.479-11.428c6.309,0,11.428,5.113,11.428,11.428v22.881
						c0,3.161,2.56,5.727,5.714,5.727s5.739-2.566,5.739-5.727v-22.881C427.969,289.486,417.679,279.216,405.088,279.216z"/>
				</g>
			</g>
		</g>
		<g>
			<g>
				<g>
					<path fill="#989898" d="M429.831,510.847c-1.616-2.728-5.119-3.613-7.834-2.049c-2.741,1.609-3.671,5.112-2.056,7.828
						c1.487,2.534,2.314,5.571,2.314,8.551c0,9.463-7.705,17.162-17.167,17.162c-9.463,0-17.167-7.699-17.167-17.162
						c0-2.979,0.814-6.017,2.327-8.551c1.577-2.728,0.646-6.218-2.068-7.828c-2.754-1.564-6.244-0.679-7.834,2.049
						c-2.534,4.324-3.878,9.276-3.878,14.33c0,15.778,12.824,28.609,28.622,28.609c15.771,0,28.583-12.831,28.608-28.609
						C433.696,520.123,432.364,515.171,429.831,510.847z"/>
				</g>
			</g>
		</g>
	</g>
</g>
</svg>
