<?xml version="1.0" encoding="utf-8"?>
<!-- Generator: Adobe Illustrator 16.0.0, SVG Export Plug-In . SVG Version: 6.00 Build 0)  -->
<!DOCTYPE svg PUBLIC "-//W3C//DTD SVG 1.1//EN" "http://www.w3.org/Graphics/SVG/1.1/DTD/svg11.dtd">
<svg version="1.1" xmlns="http://www.w3.org/2000/svg" xmlns:xlink="http://www.w3.org/1999/xlink" x="0px" y="0px" width="800px"
	 height="800px" viewBox="0 0 800 800" enable-background="new 0 0 800 800" xml:space="preserve">
<g id="Capa_1">
	<g>
		<polygon fill="#FFF229" points="715.525,396.787 669.641,232.96 574.834,133.345 409.296,82.326 400.45,79.596 392.296,82.134 
			226.797,133.249 131.99,232.672 86.182,396.094 85.047,396.094 85.605,398.094 85.047,400.094 86.144,400.094 131.99,564.305 
			226.797,664.478 405.623,719.209 405.584,720.67 407.988,719.939 409.334,720.361 409.334,719.535 588.16,664.631 682.91,564.709 
			715.525,396.787 		"/>
		<polygon fill="#F6CC19" points="632.719,398.209 598.872,277.556 529.104,204.172 407.104,166.595 400.604,164.576 
			394.565,166.441 272.681,204.095 202.874,277.326 169.066,397.729 168.259,397.748 168.682,399.209 168.259,400.671 
			169.066,400.671 202.874,521.633 272.681,595.42 404.412,635.747 404.412,636.824 406.181,636.285 407.162,636.594 
			407.162,635.978 538.873,595.555 608.699,521.939 632.719,398.209 		"/>
		<polygon fill="#FFD800" points="400.604,164.576 272.681,204.095 202.874,277.326 169.066,397.729 202.874,521.633 
			272.681,595.42 407.162,636.594 538.873,595.555 608.699,521.939 632.719,398.209 608.795,312.825 664.256,267.345 
			700.756,391.806 670.872,561.055 577.969,655.631 400.488,707.093 244.412,636.824 169.566,547.785 129.932,408.402 
			159.816,270.671 241.104,164.576 400.488,103.557 		"/>
		<polygon fill="#FFD800" points="568.604,152.307 452.411,114.691 440.893,176.999 529.104,204.172 		"/>
		<polygon fill="#F9E10C" points="404.412,636.824 400.488,707.093 337.565,678.746 371.008,625.516 		"/>
		<polygon fill="#F9E10C" points="202.874,521.633 169.566,547.785 151.759,485.133 188.758,469.805 		"/>
		<polygon fill="#E3850C" points="529.104,204.307 400.604,164.634 272.681,204.114 202.874,277.345 169.066,397.748 
			202.874,521.633 272.681,595.42 371.008,625.516 282.604,572.67 229.489,499.651 213.874,395.037 267.643,259.133 
			404.412,204.307 		"/>
		<polygon fill="#F9E10C" points="202.874,273.979 143.489,361.94 135.682,381.959 184.701,327.979 		"/>
	</g>
</g>
<g id="Capa_2">
	<g>
		<g>
			<polygon fill="#E3850C" points="547.773,414.112 547.769,414.127 547.765,414.139 			"/>
			<path fill="#E3850C" d="M543.645,456.17l-0.014,0.103c-0.002,0.006-0.002,0.013-0.002,0.019L543.645,456.17z"/>
			<polygon fill="#E3850C" points="495.437,305.633 495.514,305.54 495.527,305.524 			"/>
			<path fill="#E3850C" d="M489.64,316.304c0.002-0.003,0.004-0.007,0.004-0.007c0.002-0.009,0.002-0.013,0.005-0.02L489.64,316.304
				z"/>
			<path fill="#E3850C" d="M557.555,314.776l-0.045-0.019c-1.294-3.361-3.463-6.435-5.938-8.757
				c-2.477-2.346-5.217-3.999-7.903-5.196l-0.039-0.016c-2.445-1.08-4.896-1.856-7.439-2.491c-2.544-0.631-5.19-1.111-8-1.496
				c-3.383-0.46-6.568-0.729-9.711-0.731c-2.068,0.003-4.121,0.119-6.232,0.426l-0.033,0.004c-2.823,0.421-5.776,1.225-8.7,2.687
				c-2.913,1.446-5.759,3.621-7.978,6.326l-0.022,0.027c-2.365,2.912-4.554,6.246-5.87,10.754c-0.419,1.48-1.163,2.858-1.44,4.342
				c-0.275,1.485-1.203,3.063-1.203,4.796v-0.007l-4.052,34.286c-1.054-3.087-2.948-6.139-2.948-9.133v-0.004
				c-7-13.394-14.89-24.775-25.931-33.396l-0.106-0.004c-10.547-8.252-22.654-14.449-35.902-18.527
				c-13.359-4.112-28.144-6.104-44.262-6.109C356.708,292.523,340.081,297,324.606,304h0.007c-8.001,4-15.341,8.995-21.872,14.988
				c-6.54,5.993-12.266,12.991-17.165,20.803c-5.023,8.004-8.803,16.718-11.292,25.931c-2.494,9.214-3.7,18.943-3.7,29.061
				c0,14.809,2.065,28.551,6.44,41.051c4.358,12.489,11.076,23.696,19.965,33.135c8.899,9.488,19.674,16.766,31.811,21.484
				c12.141,4.742,25.563,6.973,39.989,6.971c2.788-0.004,5.384-0.182,8.085-0.68c2.337-0.445,5.125-1.148,7.125-2.374v0.009
				c0-0.069,0.381-0.168,0.54-0.245c0.213-0.111,0.46-0.2,0.677-0.321l0.012-0.012c2.211-1.182,4.289-2.816,5.879-4.734
				c1.872-2.229,3.126-4.711,3.911-7.081c0.823-2.511,1.154-4.677,1.4-6.977c0.043-0.417,0.059-0.861,0.091-1.285
				c0.726,0.309,1.439,0.647,2.182,0.916c5.756,2.095,11.906,3.061,18.185,3.059c8.836,0.009,17.532-1.756,25.644-5.217
				c8.095-3.44,15.582-8.51,22.412-14.897c1.586-1.459,3.067-3.028,4.49-4.661c-0.159,1.815-0.266,3.607-0.268,5.38
				c0.007,3.287,0.286,6.546,1.117,9.908c0.834,3.341,2.261,6.868,4.736,10.139l0.057,0.074l-0.048-0.063
				c1.897,2.491,4.102,4.403,6.32,5.899c3.347,2.241,6.746,3.468,10.265,4.556c3.524,1.075,7.2,2.185,11.175,2.185h0.01
				c2.694,0,5.335,0.752,7.98,0.752c4.266-0.014,8.597-0.438,13.019-2.094c2.2-0.83,4.404-1.923,6.464-3.419
				c2.062-1.491,3.956-3.323,5.504-5.408l0.196-0.254l0.188-0.271c1.068-1.564,2.05-3.164,2.932-4.898
				c0.874-1.74,1.662-3.607,2.252-5.756c0.414-1.529,1.141-2.978,1.432-4.583c0.289-1.596,1.246-3.326,1.246-5.258v0.014
				l0.059-3.553c0.287-2.122,0.238-4.249,0.24-6.405c-0.002-3.252-0.482-6.585-1.457-9.941c-0.969-3.343-2.651-6.703-4.946-9.637
				l-0.022,0.005c-0.321-0.415-0.71-0.768-1.052-1.159c1.797-1.2,3.499-2.642,4.943-4.345l0.01-0.016
				c1.191-1.4,2.319-2.915,3.355-4.65c1.023-1.73,1.961-3.698,2.639-5.997c0.442-1.521,0.967-2.884,1.243-4.36
				c0.273-1.474,0.988-3.036,0.988-4.76v-0.006l10-69.602v0.005c0-1.71,0.032-3.279,0.167-4.762c0.129-1.48-0.167-2.855-0.167-4.331
				l0,0v-0.023v-0.064v-0.068v-0.05C560,321.716,558.839,318.142,557.555,314.776z M494.234,429.237
				c0.005,0.003,0.009,0.005,0.014,0.007l-0.039-0.016C494.216,429.23,494.226,429.233,494.234,429.237z M527.051,326.612
				L527.051,326.612l-0.004-0.018C527.049,326.601,527.049,326.603,527.051,326.612z M511,399.458l9-69.601v-0.007
				c0-0.389,0.221-0.712,0.271-1.058c0.969,0.065,2.148,0.175,3.44,0.352c1.186,0.162,2.387,0.34,3.287,0.52
				c-0.051,0.414,0.001,0.824,0.001,1.3v0.004l-10,69.601v-0.006c0,0.16,0.055,0.278,0.031,0.43
				c-0.98-0.077-2.068-0.196-3.343-0.372c-1.174-0.159-2.032-0.334-2.946-0.509c0.029-0.221,0.258-0.41,0.258-0.646V399.458z
				 M431.283,379.03c1.233,4.559,1.972,10.145,1.967,16.869c0,4.862-0.553,8.905-1.474,12.165c-0.924,3.269-2.177,5.756-3.71,7.806
				l-0.004,0.007c-0.656,0.871-1.308,1.601-1.968,2.222L431.283,379.03z M482,432.954v-0.003l8.345,5.825L482,432.954z
				 M501.219,457.455c0.018-1.131-0.219-2.113-0.219-3.915v-0.014c3-1.521,1.041-2.756,1.273-3.69
				c1.586,0.038,4.122,0.211,6.931,0.601c0.769,0.104,1.522,0.226,2.049,0.349c-0.027,0.324,0.111,0.685,0.056,1.093L511,455.38
				v0.012c0,1.578-0.521,2.384-0.698,3.366c-0.809-0.023-1.886,1.242-3.1-0.758h0.008C504.945,458,502.529,457.811,501.219,457.455z
				"/>
			<path fill="#E3850C" d="M465.001,457.523c-0.022,0.02-0.046,0.041-0.068,0.061c0,0.002-0.002,0.005-0.004,0.005L465.001,457.523z
				"/>
			<polygon fill="#E3850C" points="395.027,481.979 395.024,481.985 395.022,481.99 			"/>
		</g>
	</g>
	<path fill="#F6CC19" d="M489.954,438.696c1.861-2.647,4.369-4.271,7.511-4.878c3.141-0.602,7.897-0.453,14.261,0.44
		c6.366,0.892,10.776,2.933,13.245,6.11c2.461,3.182,3.27,7.772,2.425,13.766l-0.492,3.514c-0.493,3.511-0.965,6.096-1.423,7.744
		c-0.456,1.652-1.436,3.568-2.933,5.745c-2.936,3.917-8.833,5.249-17.684,4.005c-8.854-1.245-14.498-3.493-16.954-6.744
		c-2.454-3.254-3.101-8.975-1.95-17.172C486.761,445.521,488.091,441.342,489.954,438.696z M522.953,417.262
		c-2.883,0.343-6.662,0.183-11.35-0.476c-4.682-0.658-8.356-1.546-11.032-2.669c-2.68-1.119-4.434-2.711-5.268-4.771
		c-0.823-2.052-1.245-3.827-1.26-5.323c-0.015-1.487,0.193-3.775,0.628-6.852l9.771-69.564c0.431-3.071,0.865-5.36,1.3-6.866
		c0.438-1.507,1.366-3.128,2.811-4.864c1.438-1.735,3.603-2.812,6.494-3.231c2.89-0.41,6.681-0.293,11.363,0.369
		c4.676,0.656,8.354,1.584,11.021,2.776c2.669,1.2,4.408,2.857,5.232,4.987c0.82,2.128,1.229,3.98,1.233,5.547
		c0,1.566-0.209,3.882-0.644,6.958l-9.771,69.567c-0.431,3.071-0.861,5.326-1.282,6.757c-0.428,1.434-1.354,2.982-2.78,4.642
		C527.989,415.917,525.831,416.921,522.953,417.262z"/>
	<g>
		<g>
			<path fill="#F6CC19" d="M442.206,331.292c8.732,6.835,15.6,15.782,20.604,26.842c5.001,11.062,7.501,22.755,7.501,35.083
				c0,12.328-1.69,22.755-5.074,31.278c-3.378,8.525-7.814,15.32-13.312,20.391c-11.13,10.425-23.39,15.64-36.771,15.64
				c-9.298,0-17.049-2.816-23.247-8.453c-6.201-5.634-9.3-13.313-9.3-23.035c0-1.129,0.137-2.815,0.423-5.07
				c-4.65,5.07-11.062,7.603-19.232,7.603c-8.174,0-15.465-3.483-21.873-10.456c-6.417-6.972-9.616-15.395-9.616-25.255
				c0-12.539,4.648-23.142,13.947-31.811c9.3-8.66,18.281-12.997,26.947-12.997c8.667,0,14.687,2.823,18.069,8.457
				c0.706-2.816,2.074-4.966,4.12-6.446c2.042-1.478,5.423-2.218,10.146-2.218c4.722,0,7.957,0.74,9.72,2.218
				c1.762,1.48,2.643,3.172,2.643,5.073c0,1.902-0.143,3.978-0.421,6.232l-7.188,54.103c-0.987,5.777-1.479,9.51-1.479,11.201
				c0,1.692,0.53,2.854,1.585,3.488c1.056,0.632,2.711,0.949,4.968,0.949c2.25,0,4.437-0.28,6.552-0.845
				c2.111-0.563,4.545-1.723,7.292-3.486c2.745-1.762,5.178-4.048,7.291-6.869c5.07-6.764,7.606-15.778,7.606-27.05
				c0-11.269-1.835-20.637-5.493-28.11c-3.664-7.467-8.666-13.385-15.008-17.752c-12.965-8.734-28.565-13.104-46.811-13.104
				c-18.246,0-33.041,5.18-44.383,15.536c-11.339,10.354-17.009,24.408-17.009,42.16c0,17.755,4.399,31.914,13.207,42.481
				c8.803,10.565,22.436,15.848,40.896,15.848h4.014c3.382,0,5.741,0.811,7.079,2.433c1.339,1.618,2.009,4.611,2.009,8.98
				c0,4.365-0.317,7.503-0.952,9.405c-0.634,1.902-1.727,3.201-3.275,3.909c-1.977,1.127-5.002,1.692-9.088,1.692
				c-24.799,0-44.382-7.646-58.75-22.932c-14.373-15.285-21.562-35.822-21.562-61.603c0-17.19,4.087-32.301,12.26-45.334
				c8.173-13.03,18.772-22.752,31.808-29.162c13.03-6.413,26.696-9.619,40.997-9.619c14.302,0,27.052,1.726,38.255,5.178
				C423.501,319.316,433.469,324.46,442.206,331.292z M362.743,401.248c2.25,2.322,5.21,3.483,8.876,3.483
				c3.661,0,6.936-1.373,9.827-4.122c2.883-2.746,4.541-5.808,4.966-9.192v-1.266c0-3.24-1.025-6.096-3.063-8.564
				c-2.045-2.459-5.041-3.693-8.985-3.693c-3.948,0-7.328,1.371-10.143,4.119c-2.823,2.749-4.439,5.886-4.861,9.404v1.48
				C359.361,396.14,360.484,398.922,362.743,401.248z"/>
		</g>
	</g>
</g>
</svg>
