<?xml version="1.0" encoding="utf-8"?>
<!-- Generator: Adobe Illustrator 16.0.0, SVG Export Plug-In . SVG Version: 6.00 Build 0)  -->
<!DOCTYPE svg PUBLIC "-//W3C//DTD SVG 1.1//EN" "http://www.w3.org/Graphics/SVG/1.1/DTD/svg11.dtd">
<svg version="1.1" id="Capa_1" xmlns="http://www.w3.org/2000/svg" xmlns:xlink="http://www.w3.org/1999/xlink" x="0px" y="0px"
	 width="800px" height="800px" viewBox="-400 200 100 900" enable-background="new 0 0 800 800" xml:space="preserve">
<g>
	<g>
		<g>
			<path fill="#989898" d="M521.194,348.031l-75.879-78.842c-1.087-1.107-2.574-1.743-4.122-1.743h-113.06
				c-12.653,0-22.979,10.295-22.979,22.928v80.145H259.33c-9.475,0-17.155,7.711-17.155,17.165v85.948
				c0,9.454,7.68,17.145,17.155,17.145h45.825v51.577c0,12.612,10.326,22.887,22.979,22.887h171.691
				c12.664,0,22.958-10.264,22.958-22.887V352C522.784,350.523,522.22,349.108,521.194,348.031z M442.608,282.898l62.282,64.712
				h-62.282V282.898z M259.33,479.333c-3.138,0-5.711-2.563-5.711-5.701v-85.948c0-3.138,2.574-5.701,5.711-5.701h154.66
				c3.158,0,5.711,2.563,5.711,5.701v85.948c0,3.138-2.553,5.701-5.711,5.701H259.33z M511.33,542.353
				c0,6.296-5.147,11.433-11.505,11.433H328.134c-6.378,0-11.525-5.137-11.525-11.433v-51.577h97.381
				c9.464,0,17.175-7.69,17.175-17.145v-85.948c0-9.454-7.711-17.165-17.175-17.165h-97.381v-80.145
				c0-6.327,5.147-11.484,11.525-11.484h103.031v74.464c0,3.158,2.543,5.711,5.722,5.711h74.443V542.353z"/>
		</g>
	</g>
	<g>
		<g>
			<path fill="#989898" d="M310.641,412.795c-1.907-2.481-4.266-4.081-7.096-4.83c-1.846-0.482-5.763-0.738-11.813-0.738h-15.914
				v49.208h9.926v-18.56h6.48c4.481,0,7.916-0.236,10.295-0.708c1.743-0.39,3.466-1.159,5.168-2.338
				c1.682-1.169,3.056-2.789,4.163-4.85c1.097-2.061,1.62-4.594,1.62-7.619C313.471,418.455,312.548,415.266,310.641,412.795z
				 M302.13,426.32c-0.738,1.107-1.784,1.907-3.097,2.42c-1.323,0.513-3.938,0.779-7.854,0.779h-5.435v-13.966h4.789
				c3.579,0,5.968,0.113,7.157,0.349c1.589,0.277,2.933,1.005,3.989,2.174c1.056,1.148,1.559,2.646,1.559,4.44
				C303.237,423.951,302.878,425.233,302.13,426.32z"/>
		</g>
	</g>
	<g>
		<g>
			<path fill="#989898" d="M361.233,420.68c-1.066-3.148-2.635-5.804-4.686-7.978c-2.082-2.164-4.532-3.671-7.424-4.522
				c-2.143-0.636-5.281-0.954-9.352-0.954h-18.17v49.208h18.693c3.681,0,6.604-0.359,8.798-1.056
				c2.922-0.923,5.26-2.235,6.983-3.917c2.287-2.215,4.03-5.106,5.26-8.695c1.015-2.933,1.538-6.419,1.538-10.469
				C362.874,427.694,362.31,423.818,361.233,420.68z M351.574,440.88c-0.656,2.194-1.538,3.784-2.604,4.737
				c-1.056,0.974-2.399,1.651-3.999,2.051c-1.22,0.308-3.24,0.472-6.009,0.472h-7.414l0,0v-32.587h4.481
				c4.02,0,6.747,0.154,8.121,0.472c1.856,0.41,3.384,1.189,4.594,2.317c1.2,1.148,2.174,2.728,2.83,4.768
				c0.667,2.041,1.025,4.953,1.025,8.757S352.241,438.666,351.574,440.88z"/>
		</g>
	</g>
	<g>
		<g>
			<polygon fill="#989898" points="405.079,415.553 405.079,407.227 371.323,407.227 371.323,456.436 381.27,456.436 
				381.27,435.528 401.818,435.528 401.818,427.202 381.27,427.202 381.27,415.553 			"/>
		</g>
	</g>
</g>
</svg>
