<?xml version="1.0" encoding="UTF-8" standalone="no"?>
<!-- Generator: Adobe Illustrator 16.0.0, SVG Export Plug-In . SVG Version: 6.00 Build 0)  -->

<svg
   xmlns:dc="http://purl.org/dc/elements/1.1/"
   xmlns:cc="http://creativecommons.org/ns#"
   xmlns:rdf="http://www.w3.org/1999/02/22-rdf-syntax-ns#"
   xmlns:svg="http://www.w3.org/2000/svg"
   xmlns="http://www.w3.org/2000/svg"
   xmlns:sodipodi="http://sodipodi.sourceforge.net/DTD/sodipodi-0.dtd"
   xmlns:inkscape="http://www.inkscape.org/namespaces/inkscape"
   version="1.1"
   x="0px"
   y="0px"
   width="800px"
   height="800px"
   viewBox="-400 200 100 900"
   enable-background="new 0 0 800 800"
   xml:space="preserve"
   id="svg4351"
   sodipodi:docname="ic-video.svg"
   inkscape:version="0.92.3 (2405546, 2018-03-11)"><metadata
   id="metadata4357"><rdf:RDF><cc:Work
       rdf:about=""><dc:format>image/svg+xml</dc:format><dc:type
         rdf:resource="http://purl.org/dc/dcmitype/StillImage" /></cc:Work></rdf:RDF></metadata><defs
   id="defs4355" /><sodipodi:namedview
   pagecolor="#ffffff"
   bordercolor="#666666"
   borderopacity="1"
   objecttolerance="10"
   gridtolerance="10"
   guidetolerance="10"
   inkscape:pageopacity="0"
   inkscape:pageshadow="2"
   inkscape:window-width="1366"
   inkscape:window-height="705"
   id="namedview4353"
   showgrid="false"
   inkscape:zoom="0.295"
   inkscape:cx="-225.42373"
   inkscape:cy="400"
   inkscape:window-x="-8"
   inkscape:window-y="-8"
   inkscape:window-maximized="1"
   inkscape:current-layer="svg4351" />
<g
   id="Capa_1"
   display="none">
	<g
   display="inline"
   id="g4335">
		<g
   id="g4315">
			<g
   id="g4313">
				<path
   fill="#989898"
   d="M521.194,348.031l-75.879-78.842c-1.087-1.107-2.574-1.743-4.122-1.743h-113.06      c-12.653,0-22.979,10.295-22.979,22.928v80.145H259.33c-9.475,0-17.155,7.711-17.155,17.165v85.948      c0,9.454,7.68,17.145,17.155,17.145h45.825v51.577c0,12.612,10.326,22.887,22.979,22.887h171.691      c12.664,0,22.958-10.264,22.958-22.887V352C522.784,350.523,522.22,349.108,521.194,348.031z M442.608,282.898l62.282,64.712      h-62.282V282.898z M259.33,479.333c-3.138,0-5.711-2.563-5.711-5.701v-85.948c0-3.138,2.574-5.701,5.711-5.701h154.66      c3.158,0,5.711,2.563,5.711,5.701v85.948c0,3.138-2.553,5.701-5.711,5.701H259.33z M511.33,542.353      c0,6.296-5.147,11.433-11.505,11.433H328.134c-6.378,0-11.525-5.137-11.525-11.433v-51.577h97.381      c9.464,0,17.175-7.69,17.175-17.145v-85.948c0-9.454-7.711-17.165-17.175-17.165h-97.381v-80.145      c0-6.327,5.147-11.484,11.525-11.484h103.031v74.464c0,3.158,2.543,5.711,5.722,5.711h74.443V542.353z"
   id="path4311" />
			</g>
		</g>
		<g
   id="g4321">
			<g
   id="g4319">
				<path
   fill="#989898"
   d="M310.641,412.795c-1.907-2.481-4.266-4.081-7.096-4.83c-1.846-0.482-5.763-0.738-11.813-0.738h-15.914      v49.208h9.926v-18.56h6.48c4.481,0,7.916-0.236,10.295-0.708c1.743-0.39,3.466-1.159,5.168-2.338      c1.682-1.169,3.056-2.789,4.163-4.85c1.097-2.061,1.62-4.594,1.62-7.619C313.471,418.455,312.548,415.266,310.641,412.795z       M302.13,426.32c-0.738,1.107-1.784,1.907-3.097,2.42c-1.323,0.513-3.938,0.779-7.854,0.779h-5.435v-13.966h4.789      c3.579,0,5.968,0.113,7.157,0.349c1.589,0.277,2.933,1.005,3.989,2.174c1.056,1.148,1.559,2.646,1.559,4.44      C303.237,423.951,302.878,425.233,302.13,426.32z"
   id="path4317" />
			</g>
		</g>
		<g
   id="g4327">
			<g
   id="g4325">
				<path
   fill="#989898"
   d="M361.233,420.68c-1.066-3.148-2.635-5.804-4.686-7.978c-2.082-2.164-4.532-3.671-7.424-4.522      c-2.143-0.636-5.281-0.954-9.352-0.954h-18.17v49.208h18.693c3.681,0,6.604-0.359,8.798-1.056      c2.922-0.923,5.26-2.235,6.983-3.917c2.287-2.215,4.03-5.106,5.26-8.695c1.015-2.933,1.538-6.419,1.538-10.469      C362.874,427.694,362.31,423.818,361.233,420.68z M351.574,440.88c-0.656,2.194-1.538,3.784-2.604,4.737      c-1.056,0.974-2.399,1.651-3.999,2.051c-1.22,0.308-3.24,0.472-6.009,0.472h-7.414l0,0v-32.587h4.481      c4.02,0,6.747,0.154,8.121,0.472c1.856,0.41,3.384,1.189,4.594,2.317c1.2,1.148,2.174,2.728,2.83,4.768      c0.667,2.041,1.025,4.953,1.025,8.757S352.241,438.666,351.574,440.88z"
   id="path4323" />
			</g>
		</g>
		<g
   id="g4333">
			<g
   id="g4331">
				<polygon
   fill="#989898"
   points="405.079,415.553 405.079,407.227 371.323,407.227 371.323,456.436 381.27,456.436       381.27,435.528 401.818,435.528 401.818,427.202 381.27,427.202 381.27,415.553     "
   id="polygon4329" />
			</g>
		</g>
	</g>
</g>
<g
   id="Capa_2"
   transform="matrix(2.6891921,0,0,4.1371892,-1471.9829,-1076.1838)"
   inkscape:export-xdpi="96"
   inkscape:export-ydpi="96">
	<g
   transform="translate(1,1)"
   id="g4348">
		<g
   id="g4346">
			<g
   id="g4344">
				<path
   d="m 422.485,525.596 h 50.216 c 12.261,0 22.298,-10.038 22.298,-22.308 v -16.735 h 15.732 l 42.837,26.778 c 0.568,0.553 1.684,1.112 2.782,1.112 h 22.326 c 3.349,0 5.563,-2.228 5.563,-5.577 V 397.302 c 0,-3.344 -2.214,-5.582 -5.563,-5.582 H 556.35 c -1.098,0 -1.656,0.563 -2.782,1.121 l -42.837,26.778 H 495 v -16.735 c 0,-12.275 -10.038,-22.313 -22.298,-22.313 H 354.294 l 25.808,-27.89 h 10.87 c 3.188,6.537 9.943,11.154 17.568,11.154 h 50.197 c 10.615,0 19.536,-8.926 19.536,-19.521 v -16.735 c 0,-10.605 -8.921,-19.522 -19.536,-19.522 H 408.54 c -7.625,0 -14.38,4.617 -17.568,11.154 h -23.15 c -1.674,0 -3.339,0.559 -3.897,1.675 l -55.344,59.686 h -6.017 L 289.187,362.72 c -2.252,-2.791 -5.591,-4.465 -8.95,-4.465 h -8.363 c -12.261,0 -22.308,10.047 -22.308,22.317 v 122.716 c 0,12.271 10.047,22.308 22.308,22.308 h 50.216 m 86.451,-206.385 h 50.197 c 4.484,0 8.382,3.903 8.382,8.368 v 16.735 c 0,4.46 -3.897,8.368 -8.382,8.368 h -50.197 c -4.475,0 -8.372,-3.907 -8.372,-8.368 v -16.735 c -10e-4,-4.465 3.897,-8.368 8.372,-8.368 z m -38.485,11.159 h 18.968 v 11.149 H 377.87 c -1.684,0 -2.8,0.558 -4.465,1.679 l -34.587,37.374 h -15.061 z m 113.79,172.918 c 0,6.135 -5.014,11.154 -11.145,11.154 h -55.798 -89.25 -55.779 c -6.121,0 -11.154,-5.019 -11.154,-11.154 h 27.89 c 3.339,0 5.582,-2.232 5.582,-5.572 0,-3.354 -2.242,-5.582 -5.582,-5.582 h -27.89 v -11.158 h 16.735 c 3.359,0 5.582,-2.228 5.582,-5.582 0,-3.349 -2.223,-5.577 -5.582,-5.577 H 260.72 v -89.245 c 0,-6.135 5.033,-11.159 11.173,-11.159 h 8.344 l 15.07,20.08 c 1.126,1.675 2.8,2.228 4.465,2.228 h 11.154 30.68 131.094 c 6.13,0 11.145,5.023 11.145,11.164 v 22.313 55.779 22.311 z M 495,430.769 h 11.154 v 44.625 H 495 Z m 78.086,72.519 H 558.034 L 517.316,478.18 v -49.639 l 40.718,-25.657 h 15.052 z"
   id="path4338"
   inkscape:connector-curvature="0"
   style="fill:#989898" />
				<path
   d="m 439.23,447.509 c 12.27,0 22.308,-10.042 22.308,-22.312 0,-12.271 -10.038,-22.313 -22.308,-22.313 -12.289,0 -22.327,10.042 -22.327,22.313 10e-4,12.27 10.038,22.312 22.327,22.312 z m 0,-33.471 c 6.13,0 11.145,5.019 11.145,11.159 0,6.135 -5.014,11.154 -11.145,11.154 -6.149,0 -11.164,-5.019 -11.164,-11.154 0.001,-6.14 5.015,-11.159 11.164,-11.159 z"
   id="path4340"
   inkscape:connector-curvature="0"
   style="fill:#989898" />
				<path
   d="m 461.538,469.817 h -89.25 c -3.349,0 -5.582,2.228 -5.582,5.577 v 22.317 c 0,3.344 2.233,5.577 5.582,5.577 h 89.25 c 3.34,0 5.582,-2.232 5.582,-5.577 v -22.317 c 0,-3.349 -2.242,-5.577 -5.582,-5.577 z m -5.581,22.317 H 377.87 v -11.158 h 78.086 v 11.158 z"
   id="path4342"
   inkscape:connector-curvature="0"
   style="fill:#989898" />
			</g>
		</g>
	</g>
</g>
</svg>