<?xml version="1.0" encoding="utf-8"?>
<!-- Generator: Adobe Illustrator 16.0.0, SVG Export Plug-In . SVG Version: 6.00 Build 0)  -->
<!DOCTYPE svg PUBLIC "-//W3C//DTD SVG 1.1//EN" "http://www.w3.org/Graphics/SVG/1.1/DTD/svg11.dtd">
<svg version="1.1" id="Capa_1" xmlns="http://www.w3.org/2000/svg" xmlns:xlink="http://www.w3.org/1999/xlink" x="0px" y="0px"
	 width="512px" height="512px" viewBox="0 0 512 512" enable-background="new 0 0 512 512" xml:space="preserve">
<g>
	<rect x="135.5" y="274.5" fill="#5D5D5D" width="249" height="27"/>
	<polygon fill="#5D5D5D" points="361.5,263.5 361.5,237.379 369.213,210.754 385.541,190.5 395.652,190.5 408.439,210.004 
		414.5,234.011 414.5,289.5 391.5,289.5 391.5,263.5 	"/>
	<polygon fill="#5D5D5D" points="401.266,190.5 413.902,190.5 424.69,206.075 433.5,233.07 433.5,245.239 433.5,289.5 
		421.703,289.5 421.976,234.23 412.842,209.539 	"/>
	<polygon fill="#5D5D5D" points="423.73,194.5 435.788,194.5 445.583,209.572 453.5,235.542 453.5,247.151 453.5,289.5 
		443.23,289.5 443.484,236.71 434.78,212.909 	"/>
	<polygon fill="#5D5D5D" points="448.447,205.5 459.049,205.5 467.724,218.258 472.5,240.598 472.5,250.807 472.5,297.5 
		463.351,297.5 463.574,242.98 458.164,221.869 	"/>
	<polygon fill="#5D5D5D" points="361.5,312.5 361.5,334.797 369.213,363.334 385.541,385.5 395.652,385.5 408.439,364.084 
		414.5,338.169 414.5,286.5 391.5,286.5 391.5,312.5 	"/>
	<polygon fill="#5D5D5D" points="401.266,385.5 413.902,385.5 424.69,368.013 433.5,339.106 433.5,326.937 433.5,286.5 
		421.703,286.5 421.976,339.857 412.842,365.502 	"/>
	<polygon fill="#5D5D5D" points="423.73,381.5 435.788,381.5 445.583,364.516 453.5,336.635 453.5,325.024 453.5,286.5 
		443.23,286.5 443.484,337.378 434.78,362.135 	"/>
	<polygon fill="#5D5D5D" points="448.447,370.5 459.049,370.5 467.724,355.83 472.5,331.582 472.5,321.369 472.5,289.5 
		463.351,289.5 463.574,333.243 458.164,354.24 	"/>
	<polygon fill="#4F4F4F" points="476.5,316.011 491.5,310.95 491.5,258.156 476.5,253.104 	"/>
	<polygon fill="#5D5D5D" points="158.5,263.5 158.5,237.379 151.639,210.754 136.162,190.5 126.05,190.5 112.405,210.004 
		105.5,234.011 105.5,289.5 124.5,289.5 124.5,263.5 	"/>
	<polygon fill="#5D5D5D" points="120.438,190.5 107.801,190.5 94.161,206.075 82.5,233.07 82.5,245.239 82.5,289.5 99.997,289.5 
		99.728,234.23 108.854,209.539 	"/>
	<polygon fill="#5D5D5D" points="97.969,194.5 85.911,194.5 73.765,209.572 63.5,235.542 63.5,247.151 63.5,289.5 78.473,289.5 
		78.215,236.71 86.919,212.909 	"/>
	<polygon fill="#5D5D5D" points="73.256,205.5 62.65,205.5 49.628,218.258 40.5,240.598 40.5,250.807 40.5,297.5 58.353,297.5 
		58.128,242.98 63.536,221.869 	"/>
	<polygon fill="#5D5D5D" points="158.5,312.5 158.5,334.797 151.639,363.334 136.162,385.5 126.05,385.5 112.405,364.084 
		105.5,338.169 105.5,286.5 124.5,286.5 124.5,312.5 	"/>
	<polygon fill="#5D5D5D" points="120.438,385.5 107.801,385.5 94.161,368.013 82.5,339.106 82.5,326.937 82.5,286.5 99.997,286.5 
		99.728,339.857 108.854,365.502 	"/>
	<polygon fill="#5D5D5D" points="97.969,381.5 85.911,381.5 73.765,364.516 63.5,336.635 63.5,325.024 63.5,286.5 78.473,286.5 
		78.215,337.378 86.919,362.135 	"/>
	<polygon fill="#5D5D5D" points="73.256,370.5 62.65,370.5 49.628,355.83 40.5,331.582 40.5,321.369 40.5,289.5 58.353,289.5 
		58.128,333.243 63.536,354.24 	"/>
	<polygon fill="#4F4F4F" points="40.5,316.011 28.5,310.95 28.5,258.156 40.5,253.104 	"/>
	<polygon fill="#4F4F4F" points="97.5,232.45 97.5,339.727 82.5,331.862 82.5,241.031 	"/>
	<polygon fill="#4F4F4F" points="74.5,235.721 63.5,245.684 63.5,328.285 74.5,336.813 	"/>
	<polygon fill="#4F4F4F" points="55.248,246.752 40.5,250.807 40.5,318.27 53.787,329.36 	"/>
	<polygon fill="#4F4F4F" points="418.5,339.727 418.5,232.45 433.5,240.314 433.5,331.142 	"/>
	<polygon fill="#4F4F4F" points="445.5,336.455 453.5,326.492 453.5,243.892 445.5,235.362 	"/>
	<polygon fill="#4F4F4F" points="462.104,325.424 472.5,321.369 472.5,253.907 461.393,242.816 	"/>
	<polygon fill="#4F4F4F" points="385.29,274.5 135.5,274.5 135.5,302.537 	"/>
</g>
</svg>
