<?xml version="1.0" encoding="utf-8"?>
<!-- Generator: Adobe Illustrator 22.0.0, SVG Export Plug-In . SVG Version: 6.00 Build 0)  -->
<svg version="1.1" xmlns="http://www.w3.org/2000/svg" xmlns:xlink="http://www.w3.org/1999/xlink" x="0px" y="0px"
	 viewBox="-400 200 100 900" style="enable-background:new 0 0 800 800;" xml:space="preserve">
<style type="text/css">
	.st0{display:none;}
	.st1{display:inline;}
	.st2{fill:#52C9EC;}
	.st3{fill:#89211C;}
	.st4{fill:#D96627;}
	.st5{fill:#ED7D34;}
	.st6{fill:#EF8435;}
	.st7{fill:#DE6926;}
	.st8{fill:#D65727;}
	.st9{fill:#939292;}
	.st10{fill:#C6C5C5;}
	.st11{fill:#D7CDCB;}
	.st12{fill:#6B6B6B;}
	.st13{fill:#9F9F9F;}
	.st14{fill:#EC7325;}
	.st15{fill:#AAAAAA;}
	.st16{fill:#191817;}
	.st17{fill:#C5BBBA;}
	.st18{fill:#010101;}
	.st19{fill:#E96D26;}
	.st20{fill:#ED7432;}
	.st21{fill:#FFFFFF;}
	.st22{fill:#989798;}
</style>
<g id="Layer_1" class="st0">
	<g class="st1">
		<path class="st2" d="M68.1,529C68.1,529,68.1,529,68.1,529C68.1,529,68.1,529,68.1,529L68.1,529z"/>
		<polygon class="st2" points="106.7,621.5 106.7,621.5 106.7,621.5 		"/>
		<polygon class="st2" points="81,614.7 81,614.7 81,614.7 		"/>
		<polygon class="st2" points="69.5,523.5 69.5,523.5 69.5,523.5 		"/>
		<polygon class="st2" points="94.3,622 94.3,622 94.3,622 		"/>
		<polygon class="st2" points="129.2,607.8 129.2,607.8 129.2,607.8 		"/>
		<polygon class="st2" points="116.1,522.1 116.1,522.1 116.1,522.1 		"/>
		<polygon class="st2" points="192.2,616.9 192.2,616.9 192.2,616.9 		"/>
		<path class="st2" d="M155,607.1C154.9,607.1,154.9,607.1,155,607.1C154.9,607,154.9,607,155,607.1L155,607.1z"/>
		<polygon class="st2" points="152,598.3 152,598.3 152,598.3 		"/>
		<path class="st2" d="M275.6,521.7C275.6,521.7,275.6,521.7,275.6,521.7C275.6,521.7,275.6,521.7,275.6,521.7L275.6,521.7z"/>
		<polygon class="st2" points="229,600.3 229,600.3 228.9,600.3 		"/>
		<polygon class="st2" points="359.3,656.1 359.3,656.1 359.3,656.1 		"/>
		<path class="st2" d="M606.3,503.4C606.3,503.4,606.3,503.4,606.3,503.4C606.3,503.4,606.3,503.4,606.3,503.4L606.3,503.4z"/>
		<path class="st2" d="M635.6,513.3C635.6,513.3,635.6,513.3,635.6,513.3c0,0,0-0.1,0.1-0.1L635.6,513.3z"/>
		<polygon class="st2" points="628.9,655.1 628.8,655.1 628.8,655.1 		"/>
		<polygon class="st2" points="671.2,578.1 671.2,578.1 671.2,578.1 		"/>
		<polygon class="st2" points="740.8,489.3 740.8,489.3 740.8,489.3 		"/>
		<path class="st2" d="M676.4,562.8C676.4,562.8,676.4,562.8,676.4,562.8C676.4,562.8,676.5,562.8,676.4,562.8L676.4,562.8z"/>
		<polygon class="st2" points="679.3,551.7 679.3,551.7 679.3,551.7 		"/>
		<polygon class="st2" points="726.5,594.2 726.5,594.2 726.5,594.2 		"/>
		<path class="st2" d="M728.9,462.4C728.9,462.4,728.9,462.4,728.9,462.4C728.9,462.4,728.9,462.4,728.9,462.4L728.9,462.4z"/>
		<path class="st2" d="M716.9,459.3C716.9,459.3,716.9,459.3,716.9,459.3C716.9,459.3,716.9,459.3,716.9,459.3L716.9,459.3z"/>
		<path class="st2" d="M739.6,473.2C739.6,473.2,739.6,473.2,739.6,473.2C739.6,473.2,739.6,473.3,739.6,473.2L739.6,473.2z"/>
		<path class="st2" d="M741.4,482c0-1.6-0.2-3.1-0.5-4.6c-0.3-1.4-0.8-2.8-1.3-4.1c-0.5-1.3-1.1-2.5-1.9-3.7
			c-1.2-1.7-2.6-3.2-4.1-4.4c-1.5-1.2-3.1-2.1-4.6-2.8c-1.9-0.9-3.8-1.5-5.8-2c-2-0.5-4-0.9-6.2-1.2c-2.7-0.4-5.2-0.6-7.7-0.6
			c-1.6,0-3.1,0.1-4.7,0.3c-2.2,0.3-4.5,0.9-6.8,2.1c-2.3,1.1-4.5,2.8-6.2,4.9c-0.9,1.1-1.8,2.3-2.6,3.7c-0.8,1.4-1.5,2.9-2,4.6
			c-0.3,1.1-0.6,2.2-0.8,3.4c-0.2,1.2-0.4,2.4-0.6,3.7l0,0l-4.3,30.4c-1.4-1.5-3-2.8-4.6-3.9c-2.2-1.5-4.5-2.7-7-3.8l0,0l0,0
			c-2.4-1-4.7-1.9-7.1-2.5c-2.4-0.6-4.9-1-7.5-1c-1.4,0-2.9,0.1-4.4,0.4c-2.3,0.5-4.6,1.3-6.6,2.6c-2,1.2-3.7,2.8-5,4.5l0,0
			c-0.1,0.1-0.1,0.2-0.2,0.2c0,0,0,0,0,0l0,0c-0.6,0.7-1.1,1.4-1.6,2.2c-0.6,0.8-1.1,1.7-1.6,2.7c-0.1,0.1-0.1,0.3-0.2,0.4
			c-0.1,0.3-0.3,0.5-0.4,0.9c-0.6,1.3-1.6,3.4-3,6.6c-1.4,3-3.2,7-5.4,11.9c-1.3-2.1-2.5-4.3-3.8-6.5l0,0l0,0
			c-2.9-4.9-5.1-8.7-6.7-11.4c-0.8-1.4-1.4-2.4-1.9-3.3c-0.2-0.4-0.5-0.8-0.6-1.1c-0.2-0.3-0.3-0.5-0.5-0.8l0-0.1l0-0.1
			c-0.9-1.4-2-2.6-3.1-3.7c-1.1-1-2.2-1.9-3.4-2.7c-2-1.3-4.1-2.2-6.2-2.8c-2.1-0.5-4.1-0.7-6.1-0.7c-1.6,0-3.1,0.2-4.5,0.5
			c-2.1,0.5-3.9,1.1-5.7,1.9c-1.8,0.8-3.6,1.7-5.4,2.8l0,0c-1.5,0.9-2.9,1.9-4.3,2.8c-3.1-3.8-6.6-7.2-10.4-10.3l0,0
			c-8.4-6.6-18-11.5-28.6-14.8c-10.6-3.3-22.3-4.8-35.1-4.8c-6.8,0-13.5,0.8-20.1,2.3c-6.6,1.5-12.9,3.8-19.1,6.9l0,0
			c-6.4,3.1-12.3,7.1-17.5,11.9c-5.2,4.8-9.8,10.4-13.7,16.6c-2.2,3.5-4.1,7.1-5.6,10.9c-1.8-2.6-3.8-5.1-6.1-7.5l0,0l0,0
			c-5-5.3-10.5-9.6-16.5-12.6c-3-1.5-6.2-2.7-9.4-3.5c-3.2-0.8-6.6-1.2-9.9-1.2c-3,0-6,0.2-8.9,0.8c-3.3,0.6-6.4,1.6-9.4,3
			c-1.3-0.8-2.5-1.4-3.8-1.8c-2.4-0.9-4.8-1.4-7.2-1.7c-2.4-0.3-4.9-0.4-7.6-0.4c-2.1,0-4.1,0.1-6.1,0.4c-3,0.5-6.1,1.4-9.1,3.1
			c-1.5,0.9-2.9,2-4.2,3.3c-0.3,0.3-0.5,0.6-0.8,0.9c-0.9-1-1.8-1.9-2.8-2.7c-1.5-1.2-3.1-2.1-4.7-2.7c-2.4-1-4.8-1.6-7.2-2
			c-2.4-0.4-4.8-0.5-7.4-0.5c-2.3,0-4.4,0.1-6.6,0.4c-1.6,0.2-3.2,0.5-4.7,0.9c-2.4,0.6-4.8,1.6-7.1,3.2c-1.2,0.8-2.3,1.8-3.4,2.9
			c-1,1.1-1.8,2.3-2.5,3.6l0,0c0,0.1-0.1,0.1-0.1,0.2c0,0.1-0.1,0.1-0.1,0.2l0,0c-0.6,1.2-1.2,2.5-1.7,3.8c-0.5,1.5-0.9,3-1.2,4.8
			c-0.2,1.2-0.2,2.3-0.3,3.5c-0.1,1.2-0.1,2.6-0.1,4v30.7c0,0.9-0.1,1.4-0.2,1.6c-0.1,0.2-0.1,0.2-0.3,0.4c-0.2,0.2-0.3,0.2-0.5,0.3
			c-0.3,0.1-0.8,0.2-1.8,0.2c-1.1,0-1.6-0.2-1.9-0.2c-0.2-0.1-0.2-0.1-0.3-0.2l0,0l0,0c0,0-0.1-0.1-0.1-0.4
			c-0.1-0.3-0.2-0.9-0.2-1.8v-30.3c0-2.4-0.1-4.6-0.3-6.7c-0.2-1.9-0.6-3.8-1.3-5.9l0,0c-0.9-2.8-2.4-5.5-4.4-7.6
			c-1.5-1.6-3.2-2.9-5-4c-2.7-1.5-5.4-2.4-8.2-3c-1.3-0.3-2.6-0.4-3.9-0.6c0.1-0.2,0.2-0.3,0.2-0.5c0.5-1.3,1-2.6,1.4-4
			c0.4-1.5,0.6-3.1,0.6-4.9c0-2.5-0.5-5-1.3-7.2c-0.6-1.7-1.4-3.2-2.3-4.5c-1.4-2.1-2.9-3.8-4.6-5.5c-1.7-1.6-3.6-3.1-5.6-4.5
			l-0.3-0.2l-0.3-0.2c-2.7-1.7-5.2-3-7.7-4.1c-1.3-0.5-2.6-1-4-1.4c-1.5-0.4-3.1-0.7-5-0.7c-2.1,0-4.4,0.3-6.5,0.9
			c-2.2,0.6-4.3,1.6-6.1,2.9l0,0l0,0c-1.1,0.8-2,1.5-2.9,2.4c-1.3,1.2-2.3,2.5-3.4,3.8c-1,1.3-2,2.8-3,4.3l0,0l-16.3,26.1
			l-16.3-26.1l0,0c-1.4-2.2-2.8-4.1-4.4-6c-1.5-1.7-3.1-3.2-5.1-4.6l0,0c-0.1-0.1-0.1-0.1-0.2-0.1c-0.1-0.1-0.2-0.1-0.3-0.2l0,0
			c-1.9-1.3-3.9-2.1-5.9-2.7c-2.1-0.6-4.2-0.8-6.2-0.8c-2.2,0-3.9,0.4-5.4,0.8c-2.3,0.7-4.3,1.6-6.3,2.6c-2,1.1-4,2.3-6.2,3.8l0,0
			c-1.7,1.1-3.3,2.4-4.8,3.7c-2.2,2-4.3,4.4-5.8,7.3c-0.6-1.3-1.4-2.5-2.2-3.8c-1.2-1.6-2.6-3.2-4.4-4.6l0,0c-2.4-1.8-5-2.9-7.5-3.6
			c-2.5-0.7-5-0.9-7.5-0.9c-2.3,0-4.7,0.2-7.1,0.6l0,0c-3.7,0.6-7.1,1.4-10.3,2.7c-1.6,0.7-3.2,1.5-4.8,2.4
			c-1.5,0.9-2.9,2.1-4.3,3.4l0,0c0,0,0,0-0.1,0.1c0,0,0,0-0.1,0.1l0,0c-1.2,1.2-2.2,2.6-3,3.9c-1.2,2.1-1.9,4.3-2.3,6.4
			c-0.4,2.1-0.6,4.1-0.6,6.1c0,2.5,0.2,4.9,0.6,7.5l0,0l0,0c0.6,3.9,1.5,7.5,3,10.9c0.7,1.7,1.6,3.4,2.8,5.1
			c1.2,1.6,2.6,3.2,4.5,4.6c0.5,0.4,1,0.7,1.5,1c-1.1,1.3-2.1,2.8-2.8,4.5c-0.6,1.3-1.1,2.7-1.5,4.1c-0.4,1.5-0.6,3.1-0.6,5l0,0.2
			l0-0.1c0,1.3,0.1,2.4,0.2,3.5c0.1,1.2,0.3,2.4,0.5,3.7l8.4,54.3l0,0c0.2,1.3,0.4,2.6,0.7,3.7c0.2,1.1,0.5,2.2,0.8,3.3l0,0
			c0,0,0,0.1,0,0.1c0,0,0,0,0,0.1l0,0c0.5,1.6,1.1,3,1.8,4.2c0.7,1.3,1.5,2.5,2.4,3.6c1.7,2.2,4,4,6.3,5.2c2.4,1.2,4.7,1.8,7,2.1
			c1.4,0.2,2.8,0.2,4.1,0.2c2.7,0,5.4-0.3,8.3-0.7c2.2-0.3,4.2-0.8,6.2-1.3c2-0.5,3.9-1.2,5.7-2l0,0l0,0c2-0.9,4.1-2.2,5.9-3.9
			c1.9-1.7,3.5-4,4.6-6.5c0.6-1.3,1-2.7,1.4-4.2c0.4-1.5,0.6-3.1,0.6-4.9l0-0.3v0c0-1.2-0.1-2.3-0.2-3.4c-0.1-1.2-0.3-2.4-0.5-3.8
			l0,0L122,537l0,0c-0.2-1.4-0.4-2.6-0.7-3.7c-0.2-1.1-0.5-2.2-0.8-3.3l0-0.1l0-0.1c-0.5-1.6-1.2-3-1.9-4.3
			c-0.7-1.3-1.6-2.4-2.4-3.5c-1.3-1.6-2.9-3-4.6-4c1-1.1,1.8-2.2,2.5-3.4c1.1-2,1.8-4.1,2.2-6.1c0,0,0,0,0,0.1l0-0.1l35.3,52.9v29
			c0,1.5,0,2.9,0.1,4.1c0.1,1.3,0.1,2.4,0.3,3.7c0.2,1.7,0.6,3.3,1.2,4.7c0.5,1.4,1.1,2.8,1.8,4.1c1.2,2.4,3,4.6,5.2,6.3
			c2.1,1.7,4.5,2.9,6.8,3.6l0,0c2.1,0.6,4.1,1,6.2,1.3c2.1,0.2,4.2,0.3,6.4,0.3c2.2,0,4.4-0.1,6.4-0.3c2.1-0.2,4.1-0.6,6.2-1.3l0,0
			c2.3-0.7,4.6-1.8,6.7-3.5c2.1-1.6,4-3.8,5.2-6.2l0,0l0,0c0.7-1.3,1.3-2.6,1.8-4.1c0.5-1.4,0.9-3,1.2-4.7c0.2-1.2,0.2-2.4,0.3-3.6
			c0.1-1.2,0.1-2.6,0.1-4v-29.3l6.9-10.3v8.5c0,7.6,1.2,15,3.6,21.8c2.4,6.9,6.2,13.2,11,18.7c4.9,5.6,10.7,10.1,17.3,13.1
			c6.6,3,13.8,4.5,21.2,4.4c3.5,0,6.9-0.5,10.2-1.5c2.4-0.7,4.7-1.7,6.9-2.9c1.5,1,2.9,1.7,4.4,2.3c2.3,0.9,4.5,1.4,6.8,1.7
			c2.3,0.3,4.6,0.5,7.1,0.5c2.2,0,4.4-0.1,6.5-0.4c1.6-0.2,3.1-0.5,4.7-0.9c1.8-0.5,3.7-1.2,5.5-2.2v16c0,1.5,0,2.8,0.1,4
			c0.1,1.2,0.1,2.4,0.3,3.6c0.2,1.6,0.6,3.2,1.1,4.6c0.5,1.4,1.1,2.7,1.8,4l0,0l0,0c1.3,2.4,3.1,4.5,5.2,6c2.1,1.6,4.3,2.7,6.5,3.4
			l0,0c2,0.7,4,1,6.1,1.3c2,0.2,4.1,0.3,6.3,0.4c2.2,0,4.3-0.1,6.3-0.4c2-0.3,4.1-0.6,6.1-1.3c2.2-0.7,4.5-1.9,6.6-3.5
			c2.1-1.6,3.8-3.8,5-6.1l0,0c0.6-1.3,1.2-2.5,1.7-3.9c0.5-1.4,0.9-2.9,1.1-4.5l0,0l0,0c0.2-1.2,0.2-2.4,0.3-3.6
			c0.1-1.2,0.1-2.5,0.1-4v-15.1c2.6,0.4,5.4,0.6,8.1,0.6c3.3,0,6.7-0.4,9.9-1.2c4.9-1.2,9.5-3.2,13.9-6c4.3-2.7,8.3-6.2,12.1-10.1
			c1.8-1.9,3.4-3.8,4.9-5.9c3.5,9.8,8.8,18.7,15.8,26.1l0,0c7.1,7.6,15.8,13.4,25.5,17.2c9.7,3.8,20.4,5.6,31.9,5.6
			c2.2,0,4.4-0.1,6.7-0.6c2.1-0.4,4.2-1,6.4-2.2c2.1-1,4.1-2.6,5.6-4.4c1.6-1.9,2.7-4,3.3-6c0.4-1.1,0.6-2,0.8-3
			c0.1-0.6,0.2-1.2,0.3-1.8c4.6,1.7,9.6,2.4,14.6,2.4c7.1,0,14.1-1.4,20.7-4.2c6.5-2.8,12.5-6.9,18-12c3.1-2.8,5.7-6.1,8.1-9.6
			c2.3-3.6,4.3-7.5,6-11.6l0,0c1.3-3.3,2.4-6.9,3.1-10.6l9.6,16.2c-4.2,9.1-7.5,16.5-9.9,22.2c-1.4,3.5-2.6,6.3-3.4,8.7
			c-0.4,1.2-0.8,2.3-1.1,3.5c-0.2,0.6-0.3,1.2-0.4,1.9c-0.1,0.7-0.2,1.5-0.2,2.7c0,2.8,0.6,5.6,1.7,8.1c0.8,1.9,1.9,3.5,3.1,5
			c1.8,2.2,3.8,3.9,6,5.4c2.2,1.5,4.5,2.7,6.9,3.8l0.1,0l0.1,0c2.4,1,4.6,1.9,6.9,2.5c1.1,0.3,2.3,0.6,3.4,0.8
			c1.2,0.2,2.4,0.3,3.8,0.3c2.1,0,4.3-0.3,6.5-0.9c2.2-0.6,4.3-1.7,6.2-3.1l0,0c1.2-0.9,2.4-1.9,3.5-3.1c1.1-1.2,2.1-2.6,3-4.1l0,0
			l0,0c0.5-0.9,0.9-1.8,1.4-2.8c0.4-1,0.9-2,1.4-3.1l40.7-91.1c0.1,0.3,0.2,0.7,0.4,1c0.5,1.3,1.2,2.6,2,3.7
			c0.4,0.6,0.8,1.1,1.2,1.6c0,0-0.1,0-0.1,0.1c-2.4,1.5-4.4,3.6-6,5.8c-1.7,2.4-2.8,4.9-3.6,7.4c-0.8,2.5-1.3,5.1-1.7,7.9
			c-0.4,2.5-0.6,4.9-0.6,7.3c0,2.5,0.2,5,0.9,7.6c0.3,1.3,0.8,2.6,1.3,3.9c0.6,1.3,1.3,2.6,2.3,3.9l0,0c1.5,1.9,3.2,3.4,4.9,4.6
			c2.6,1.7,5.2,2.8,7.9,3.7c2.7,0.8,5.6,1.4,8.7,1.9l0,0c2.1,0.3,4.2,0.5,6.3,0.5c1.7,0,3.3-0.1,5-0.4c2.5-0.4,5.1-1.1,7.6-2.4
			c2.5-1.3,4.9-3.3,6.7-5.7l0.1-0.2l0.1-0.2c0.8-1.2,1.6-2.4,2.3-3.8c0.7-1.3,1.3-2.8,1.8-4.5c0.3-1.2,0.6-2.3,0.8-3.5
			c0.2-1.2,0.4-2.6,0.7-4.1l0,0l0.4-2.8l0,0c0.2-1.7,0.4-3.4,0.4-5.1c0-2.5-0.3-5.1-1-7.6c-0.7-2.6-2-5.1-3.7-7.4l0,0
			c-0.3-0.4-0.6-0.8-1-1.1c1.5-0.9,2.9-2.1,4-3.5l0,0c0.9-1.1,1.8-2.3,2.6-3.6c0.8-1.3,1.5-2.8,2-4.5l0,0l0,0
			c0.3-1.2,0.6-2.2,0.8-3.4c0.2-1.1,0.4-2.4,0.6-3.7l0-0.1l7.6-54.4c0.2-1.4,0.3-2.6,0.4-3.8c0.1-1.2,0.2-2.3,0.2-3.4L741.4,482
			L741.4,482z M102.7,515.2L102.7,515.2C102.7,515.2,102.7,515.2,102.7,515.2C102.7,515.2,102.7,515.2,102.7,515.2z M701.9,565.2
			L701.9,565.2C701.9,565.2,701.9,565.2,701.9,565.2L701.9,565.2z M705.4,554.1L705.4,554.1C705.4,554.1,705.4,554.1,705.4,554.1
			C705.4,554.1,705.4,554.1,705.4,554.1z M690.2,562.3L690.2,562.3C690.2,562.3,690.2,562.3,690.2,562.3
			C690.2,562.3,690.2,562.3,690.2,562.3z M545,560.6c0,3.7-0.4,6.7-1.1,9.1c-0.2,0.5-0.3,1-0.5,1.5l1.6-11.7
			C545,559.8,545,560.2,545,560.6z M464.5,589.8L464.5,589.8C464.5,589.7,464.5,589.7,464.5,589.8L464.5,589.8z M374.9,558.3
			c0.1-0.3,0.3-0.7,0.9-1.3l0,0c0.1-0.1,0.2-0.2,0.2-0.2l0,0c0.1,0,0.3-0.1,1-0.1c0.8,0,1.1,0.1,1.2,0.2c0.1,0.1,0.1,0,0.4,0.3l0,0
			c0.5,0.6,0.7,0.9,0.8,1.2c0.1,0.2,0.1,0.4,0.1,0.8c0,0.3,0,0.3-0.1,0.5c-0.1,0.1-0.2,0.4-0.8,1l0,0c-0.4,0.4-0.6,0.5-0.8,0.6
			c-0.2,0.1-0.4,0.1-1,0.2c-0.6,0-0.7-0.1-0.7-0.1c0,0,0,0-0.3-0.3l0,0c-0.5-0.6-0.7-1-0.8-1.2c-0.1-0.2-0.1-0.3-0.1-0.7
			C374.8,558.7,374.8,558.6,374.9,558.3z M365,506.6L365,506.6C365,506.6,365,506.6,365,506.6C365,506.6,365,506.6,365,506.6z
			 M279,607.7C279,607.7,279,607.7,279,607.7C279,607.7,279,607.7,279,607.7L279,607.7z M293.4,606.9
			C293.4,606.9,293.4,606.9,293.4,606.9C293.5,606.9,293.5,606.9,293.4,606.9L293.4,606.9z"/>
		<polygon class="st2" points="691.6,465.9 691.6,465.9 691.6,465.9 		"/>
		<polygon class="st2" points="438.9,618.8 438.8,618.8 438.8,618.8 		"/>
		<path class="st2" d="M572.5,609.9C572.5,609.9,572.5,609.9,572.5,609.9C572.4,610,572.4,610,572.5,609.9L572.5,609.9z"/>
		<polygon class="st2" points="460.8,487.4 460.9,487.3 460.9,487.3 		"/>
		<polygon class="st2" points="535.1,483 535.1,483 535.1,483 		"/>
		<polygon class="st2" points="563.6,497.7 563.7,497.7 563.7,497.7 		"/>
		<path class="st2" d="M518.1,628.4C518.1,628.4,518.1,628.4,518.1,628.4C518.1,628.4,518.1,628.4,518.1,628.4L518.1,628.4z"/>
		<polygon class="st2" points="429.7,515.9 429.7,515.9 429.7,515.8 		"/>
	</g>
	<g class="st1">
		<polygon class="st3" points="231.3,117.5 258.9,184.6 300.6,238.5 319.2,229.9 286.1,182 		"/>
		<polygon class="st3" points="567.9,117.5 540.3,184.7 498.6,238.6 480,229.9 513.1,182 		"/>
		<polygon class="st4" points="231.3,117.5 258.9,183.7 243,202 223,148.2 		"/>
		<polygon class="st4" points="567.9,117.5 540.3,183.7 556.2,202 576.2,148.2 		"/>
		<polyline class="st5" points="318.9,228.1 300.4,238.2 281.9,268.5 290,289.7 226.8,341.2 328.2,302.5 370,333.8 383.5,374.3 
			399.9,370.6 399.9,283.7 		"/>
		<polygon class="st6" points="399.9,190.4 343.6,202.3 319.1,228.1 327.8,302.5 399.9,284.1 		"/>
		<polygon class="st7" points="270.4,324.6 276.8,356 226.8,341.2 		"/>
		<polygon class="st8" points="290,289.7 281.9,268.5 263.8,311 		"/>
		<polygon class="st7" points="370,333.8 383.8,374.3 376.8,384.6 348.9,375.3 		"/>
		<polygon class="st9" points="399.9,436.8 399.9,460.2 344.4,445.1 304.6,427.1 290,389.9 340.8,409.9 		"/>
		<polygon class="st10" points="276.2,355.9 290,389.9 226.8,341.2 		"/>
		<polygon class="st11" points="349.8,375.2 340.6,410.6 290,389.9 276.2,355.9 		"/>
		<polygon class="st12" points="349.8,375 366.5,421.9 399.9,436.8 399.9,420.2 374.9,414.4 		"/>
		<polygon class="st13" points="399.9,398.2 399.9,414.7 371.5,409.2 349.6,375 376.5,384.4 		"/>
		<polygon class="st14" points="370,333.8 349.9,375.3 276.2,355.9 269.8,324.8 328.2,302.5 		"/>
		<polygon class="st15" points="290,389.9 226.8,341.2 300.8,417.4 		"/>
		<polygon class="st16" points="399.9,414.7 399.3,421.6 374.9,414.4 371.5,409.2 		"/>
		<polygon class="st16" points="399.9,370.6 383.5,374.3 376.5,384.4 399.9,398.2 		"/>
		<polygon class="st17" points="349.8,375 340.6,410.6 366.5,421.9 		"/>
		<polygon class="st18" points="365.9,330.8 327.5,293.4 297.9,314.3 328.7,302.3 		"/>
		<polygon class="st19" points="300.6,238.5 258.9,183.7 243,202 280.8,271.1 		"/>
		<polygon class="st20" points="231.3,117.5 286.1,182 318.4,229.3 344.7,203.7 311,155.8 258.5,119.9 		"/>
		<polyline class="st5" points="480.4,228.5 498.8,238.6 517.3,268.9 509.2,290.1 572.4,341.5 471,302.9 429.2,334.2 415.9,374.6 
			399.6,371 399.6,284.1 		"/>
		<polygon class="st6" points="399.9,190.4 455.8,203.2 480.2,228.9 471.6,303.4 398.3,284.5 		"/>
		<polygon class="st7" points="528.9,324.6 522.3,356.1 572.4,341.2 		"/>
		<polygon class="st8" points="509.2,290.1 517.3,268.6 535.4,311.9 		"/>
		<polygon class="st7" points="429.2,333.8 415.4,374.3 422.4,384.7 449.7,375 		"/>
		<polygon class="st9" points="399.6,436.8 399.6,460.2 455,445.1 494.7,427.2 509.3,389.9 458.6,409.2 		"/>
		<polygon class="st10" points="523,355.9 509.2,389.9 572.4,341.2 		"/>
		<polygon class="st11" points="449.4,375.2 458.6,410.6 509.2,389.9 523,355.9 		"/>
		<polygon class="st12" points="449.4,375 432.9,422 399.6,436.8 399.6,420.3 424.5,414.4 		"/>
		<polygon class="st13" points="399.6,398.2 399.6,414.7 427.9,409.2 449.7,375 422.9,384.4 		"/>
		<polygon class="st14" points="429.2,333.8 449.4,375.2 523,355.9 529.4,324.8 471,302.6 		"/>
		<polygon class="st15" points="509.2,389.9 572.4,341.2 498.4,417.4 		"/>
		<polygon class="st16" points="399.3,414.7 399.3,421.6 424.5,414.4 428,409.2 		"/>
		<polygon class="st16" points="399.6,370.6 415.9,374.3 423,384.4 399.6,398.2 		"/>
		<polygon class="st17" points="449.4,375 458.6,410.6 432.7,422 		"/>
		<polygon class="st18" points="433.3,333.8 471.7,296.4 501.3,317.4 470.5,305.4 		"/>
		<polygon class="st19" points="498.6,238.6 540.3,183.7 556.2,202 518.4,271.1 		"/>
		<polygon class="st20" points="567.9,117.5 513.1,182 480.3,229.5 454.5,203.7 488.2,155.8 540.7,120 		"/>
	</g>
	<g class="st1">
		<path class="st21" d="M91,516c-5.9,0.9-10.1,0.4-12.7-1.5c-2.6-1.9-4.4-6.1-5.4-12.5c-1-6.6-0.4-11,1.8-13.3
			c2.4-2.5,6.6-4.2,12.5-5.1c5.9-0.9,10.1-0.4,12.7,1.5c2.6,1.9,4.4,6.1,5.3,12.3c1,6.7,0.5,11.2-1.8,13.4
			C101.1,513.4,96.9,515.1,91,516z M85.2,531.3c2.1-0.9,5-1.7,8.7-2.2c3.7-0.6,6.6-0.7,8.9-0.5c2.3,0.2,3.9,1,5,2.4
			c1.1,1.4,1.8,2.6,2.2,3.7c0.3,1.1,0.7,2.9,1.1,5.3l8.4,54.3c0.4,2.4,0.6,4.2,0.6,5.4c0,1.2-0.3,2.7-1,4.3
			c-0.7,1.6-2.1,2.9-4.2,3.9c-2.1,1-5,1.7-8.7,2.3c-3.7,0.6-6.6,0.7-8.9,0.4c-2.3-0.3-4-1.1-5.1-2.5c-1.1-1.4-1.8-2.7-2.2-3.9
			c-0.4-1.2-0.7-3-1.1-5.4l-8.4-54.3c-0.4-2.4-0.6-4.2-0.6-5.4c0-1.2,0.3-2.5,1-4.1C81.6,533.4,83,532.2,85.2,531.3z"/>
		<path class="st21" d="M229.3,482c5.7,3.9,8.5,7.7,8.5,11.4c0,2.2-1.3,5.3-4,9.2l-37.5,56v33.1c0,2.7-0.1,4.7-0.3,6
			c-0.2,1.3-0.7,2.9-1.6,4.6c-0.9,1.7-2.5,2.9-4.7,3.6c-2.2,0.7-5.1,1-8.8,1c-3.7,0-6.6-0.3-8.8-1c-2.2-0.7-3.8-1.9-4.7-3.7
			c-0.9-1.8-1.5-3.3-1.7-4.7c-0.2-1.3-0.3-3.4-0.3-6.2v-32.8l-37.5-56c-2.7-3.9-4-7-4-9.2c0-3.7,2.5-7.3,7.6-10.7
			c5.1-3.4,8.7-5.1,10.9-5.1c2.2,0,3.9,0.5,5.2,1.4c2,1.3,4,3.6,6.2,7.1l26.9,43l26.9-43c2.2-3.5,4.1-5.8,5.7-6.9
			c1.6-1.1,3.5-1.6,5.6-1.6C221.3,477.7,224.7,479.1,229.3,482z"/>
		<path class="st21" d="M268.8,606.3c-11.7,0-21.4-4.4-29-13.3c-7.7-8.8-11.5-19.6-11.5-32.3v-30.3c0-2.8,0.1-4.8,0.3-6.1
			c0.2-1.3,0.7-2.8,1.5-4.5c1.6-3.1,6.1-4.7,13.5-4.7c8.1,0,12.8,2.2,14.2,6.6c0.7,1.9,1,4.8,1,8.8v30.3c0,4.7,1.4,8.4,4.1,11.1
			c2.7,2.7,6.4,4,10.9,4c4.6,0,8.3-1.4,11.1-4.2c2.8-2.8,4.2-6.4,4.2-10.9v-30.7c0-2.7,0.1-4.7,0.3-6c0.2-1.3,0.7-2.9,1.6-4.6
			c1.5-3,5.9-4.5,13.3-4.5c7.3,0,11.7,1.6,13.4,4.7c0.8,1.7,1.3,3.3,1.5,4.6c0.2,1.3,0.3,3.3,0.3,6v61.4c0,2.5-0.1,4.5-0.3,5.8
			c-0.2,1.3-0.7,2.8-1.7,4.4c-1.7,3-6.2,4.5-13.4,4.5c-7,0-11.4-1.4-13-4.2c-1.2-2-1.7-4.3-1.7-7.1c-0.5,0.8-1.5,2-3.1,3.5
			c-1.6,1.5-3.2,2.8-4.7,3.8C277.7,605.1,273.4,606.3,268.8,606.3z"/>
		<path class="st21" d="M333.3,631.5V530.2c0-2.7,0.1-4.6,0.3-5.9c0.2-1.3,0.7-2.7,1.5-4.3c1.6-3.1,5.5-4.7,11.6-4.7
			c6.1,0,10.3,0.8,12.4,2.3c2.1,1.6,3.4,3.8,3.7,6.8c4.4-6,11.3-9,20.7-9c9.4,0,18.3,4.4,26.8,13.3c8.4,8.9,12.7,19.3,12.7,31
			c0,11.8-4.2,22.1-12.6,31c-8.4,8.9-17.3,13.4-26.8,13.4c-9.5,0-16.4-2.7-20.6-8v35c0,2.7-0.1,4.6-0.3,5.9
			c-0.2,1.3-0.7,2.7-1.6,4.4c-0.9,1.7-2.3,2.9-4.4,3.6c-2.1,0.7-4.9,1-8.5,1c-3.6,0-6.4-0.3-8.6-1c-2.1-0.7-3.6-1.9-4.5-3.5
			c-0.9-1.6-1.4-3.1-1.6-4.3C333.4,636.1,333.3,634.1,333.3,631.5z M367.6,549.8c-2.7,3.1-4,6.5-4,10.2c0,3.7,1.4,7.1,4.1,10.1
			c2.7,3.1,6.2,4.6,10.4,4.6c4.2,0,7.8-1.5,10.7-4.5c3-3,4.4-6.4,4.4-10.2c0-3.8-1.4-7.3-4.2-10.3c-2.8-3.1-6.4-4.6-10.8-4.6
			S370.3,546.7,367.6,549.8z"/>
		<path class="st21" d="M666.1,516.3c6.8,3,10.2,6.6,10.2,10.9c0,2.1-0.5,4-1.4,5.9c-0.9,1.9-1.4,2.8-1.4,3l-45.4,101.6
			c-0.9,2.2-1.7,3.9-2.3,5c-0.6,1.2-1.6,2.3-3,3.3c-1.4,1-3.1,1.6-5.2,1.6c-2.1,0-5.1-0.9-9.2-2.6c-6.8-3-10.2-6.6-10.2-10.8
			c0-2.8,5.5-16,16.6-39.7l-34.5-58.1c-2.3-3.8-3.5-6.6-3.5-8.5c0-3.7,3.1-7.4,9.4-11.1c3.9-2.3,7-3.5,9.2-3.5c2.2,0,4,0.5,5.4,1.4
			c1.4,0.9,2.4,1.9,3,2.9c0.6,1,3.8,6.4,9.5,16.1c5.7,9.8,11.2,18.9,16.4,27.3c0.6-1.8,3.7-9,9.4-21.4c5.7-12.4,8.7-19,9.1-19.9
			c0.4-0.8,1.1-1.8,2-3c1.5-2,3.6-2.9,6.3-2.9C659.1,513.9,662.3,514.7,666.1,516.3z"/>
		<path class="st21" d="M688,570.9c1.5-2.1,3.4-3.3,5.9-3.8c2.5-0.5,6.2-0.4,11.2,0.3c5,0.7,8.4,2.3,10.4,4.8
			c1.9,2.5,2.6,6.1,1.9,10.8l-0.4,2.8c-0.4,2.7-0.8,4.8-1.1,6.1c-0.4,1.3-1.1,2.8-2.3,4.5c-2.3,3.1-6.9,4.1-13.8,3.1
			c-6.9-1-11.3-2.7-13.3-5.3c-1.9-2.5-2.4-7-1.5-13.4C685.5,576.3,686.6,573,688,570.9z M713.8,554.2c-2.3,0.3-5.2,0.1-8.9-0.4
			c-3.7-0.5-6.5-1.2-8.6-2.1c-2.1-0.9-3.5-2.1-4.1-3.7c-0.6-1.6-1-3-1-4.2c0-1.2,0.2-3,0.5-5.4l7.6-54.4c0.3-2.4,0.7-4.2,1-5.4
			c0.3-1.2,1.1-2.4,2.2-3.8c1.1-1.4,2.8-2.2,5.1-2.5c2.3-0.3,5.2-0.2,8.9,0.3c3.7,0.5,6.5,1.2,8.6,2.2c2.1,0.9,3.5,2.2,4.1,3.9
			c0.6,1.7,1,3.1,1,4.3c0,1.2-0.2,3-0.5,5.4l-7.6,54.4c-0.3,2.4-0.7,4.2-1,5.3c-0.3,1.1-1.1,2.3-2.2,3.6
			C717.8,553.1,716.1,553.9,713.8,554.2z"/>
		<g>
			<path class="st21" d="M557.3,508.5c7.2,5.6,12.8,12.9,16.9,22c4.1,9.1,6.2,18.7,6.2,28.8c0,10.1-1.4,18.7-4.2,25.7
				c-2.8,7-6.4,12.6-10.9,16.7c-9.1,8.6-19.2,12.8-30.2,12.8c-7.6,0-14-2.3-19.1-6.9c-5.1-4.6-7.6-10.9-7.6-18.9
				c0-0.9,0.1-2.3,0.3-4.2c-3.8,4.2-9.1,6.2-15.8,6.2c-6.7,0-12.7-2.9-18-8.6c-5.3-5.7-7.9-12.6-7.9-20.7c0-10.3,3.8-19,11.4-26.1
				c7.6-7.1,15-10.7,22.1-10.7c7.1,0,12,2.3,14.8,6.9c0.6-2.3,1.7-4.1,3.4-5.3c1.7-1.2,4.4-1.8,8.3-1.8c3.9,0,6.5,0.6,8,1.8
				c1.4,1.2,2.2,2.6,2.2,4.2c0,1.6-0.1,3.3-0.4,5.1l-5.9,44.4c-0.8,4.7-1.2,7.8-1.2,9.2c0,1.4,0.4,2.3,1.3,2.9
				c0.9,0.5,2.2,0.8,4.1,0.8c1.9,0,3.6-0.2,5.4-0.7c1.7-0.5,3.7-1.4,6-2.9c2.3-1.4,4.2-3.3,6-5.6c4.2-5.5,6.2-12.9,6.2-22.2
				c0-9.2-1.5-16.9-4.5-23.1c-3-6.1-7.1-11-12.3-14.6c-10.6-7.2-23.4-10.8-38.4-10.8s-27.1,4.2-36.4,12.7c-9.3,8.5-14,20-14,34.6
				c0,14.6,3.6,26.2,10.8,34.9c7.2,8.7,18.4,13,33.6,13h3.3c2.8,0,4.7,0.7,5.8,2c1.1,1.3,1.7,3.8,1.7,7.4s-0.3,6.2-0.8,7.7
				c-0.5,1.6-1.4,2.6-2.7,3.2c-1.6,0.9-4.1,1.4-7.5,1.4c-20.4,0-36.4-6.3-48.2-18.8c-11.8-12.5-17.7-29.4-17.7-50.5
				c0-14.1,3.3-26.5,10.1-37.2c6.7-10.7,15.4-18.7,26.1-23.9c10.7-5.3,21.9-7.9,33.6-7.9c11.7,0,22.2,1.4,31.4,4.2
				C542,498.7,550.2,502.9,557.3,508.5z M492.1,565.9c1.9,1.9,4.3,2.9,7.3,2.9c3,0,5.7-1.1,8.1-3.4c2.4-2.3,3.7-4.8,4.1-7.5v-1
				c0-2.7-0.8-5-2.5-7c-1.7-2-4.1-3-7.4-3c-3.2,0-6,1.1-8.3,3.4c-2.3,2.3-3.6,4.8-4,7.7v1.2C489.3,561.7,490.3,564,492.1,565.9z"/>
		</g>
	</g>
</g>
<g id="Layer_2">
	<g>
		<g>
			<path class="st22" d="M537.4,280.3H416.5v-14.5c0-6.2-5-11.2-11.2-11.2c-6.2,0-11.2,5-11.2,11.2v14.5H273.2
				c-6.2,0-11.2,5-11.2,11.2v16.2c0,6.2,5,11.2,11.2,11.2h2.6v165.3c0,6.4,5.2,11.5,11.5,11.5h52l-10.7,39.1
				c-1.6,6,1.9,12.1,7.8,13.8c6,1.6,12.1-1.9,13.7-7.8l5-18.4h100.2l5,18.4v0c1.6,6,7.8,9.5,13.7,7.8c6-1.6,9.5-7.8,7.8-13.8
				l-10.7-39.1h52c6.4,0,11.5-5.2,11.5-11.5V413c0-2.4-1.9-4.3-4.3-4.3s-4.3,1.9-4.3,4.3v71.1c0,1.6-1.3,2.9-2.9,2.9
				c-4.2,0-105.1,0-109.3,0c-2.4,0-4.3,1.9-4.3,4.3c0,2.4,1.9,4.3,4.3,4.3h34.1l4.9,18h-95.5l4.9-18h31.4c2.4,0,4.3-1.9,4.3-4.3
				c0-2.4-1.9-4.3-4.3-4.3c-0.8,0-105.6,0-106.6,0c-1.6,0-2.9-1.3-2.9-2.9V318.9h241.8v74c0,2.4,1.9,4.3,4.3,4.3s4.3-1.9,4.3-4.3
				v-74h2.6c6.2,0,11.2-5,11.2-11.2v-16.2C548.6,285.3,543.5,280.3,537.4,280.3z M462.4,495.7L462.4,495.7l11.3,41.3
				c0.4,1.4-0.4,2.8-1.8,3.2c-1.4,0.4-2.8-0.4-3.2-1.8L457,495.7H462.4z M353.5,495.7l-11.7,42.7c-0.4,1.4-1.8,2.2-3.2,1.8
				c-1.4-0.4-2.2-1.8-1.8-3.2l11.3-41.3H353.5L353.5,495.7z M402.7,265.8L402.7,265.8c0-1.4,1.2-2.6,2.6-2.6s2.6,1.2,2.6,2.6v14.5
				h-5.1V265.8z M540,307.7c0,1.4-1.2,2.6-2.6,2.6c-4.1,0-260,0-264.2,0c-1.4,0-2.6-1.2-2.6-2.6v-16.2c0-1.4,1.2-2.6,2.6-2.6
				c11.2,0,257.5,0,264.2,0c1.4,0,2.6,1.2,2.6,2.6V307.7z"/>
		</g>
	</g>
	<g>
		<g>
			<path class="st22" d="M497.5,458.3h-6.7V339.5c0-3.6-2.9-6.4-6.4-6.4h-19.1c-3.5,0-6.4,2.9-6.4,6.4v20.2H442
				c-3.5,0-6.4,2.9-6.4,6.4v17h-16.9c-3.5,0-6.4,2.9-6.4,6.4v15.8h-16.9c-3.5,0-6.4,2.9-6.4,6.4v46.4h-6.7c-2.4,0-4.3,1.9-4.3,4.3
				c0,2.4,1.9,4.3,4.3,4.3c23.7,0,89.3,0,115.3,0c2.4,0,4.3-1.9,4.3-4.3C501.8,460.2,499.9,458.3,497.5,458.3z M412.2,458.3h-14.7
				v-44.2h14.7L412.2,458.3L412.2,458.3z M435.5,458.3h-14.7c0-6.1,0-58.6,0-66.5h14.7V458.3z M458.8,458.3h-14.7
				c0-2.6,0-84.2,0-89.9h14.7V458.3z M482.2,458.3h-14.7c0-4.2,0-112.3,0-116.6h14.7V458.3z"/>
		</g>
	</g>
	<g>
		<g>
			<path class="st22" d="M351.7,342.5H329c-2.4,0-4.3,1.9-4.3,4.3c0,2.4,1.9,4.3,4.3,4.3h22.7c2.4,0,4.3-1.9,4.3-4.3
				C356,344.4,354.1,342.5,351.7,342.5z"/>
		</g>
	</g>
	<g>
		<g>
			<path class="st22" d="M363.1,363.9h-45.4c-2.4,0-4.3,1.9-4.3,4.3c0,2.4,1.9,4.3,4.3,4.3h45.4c2.4,0,4.3-1.9,4.3-4.3
				C367.4,365.8,365.5,363.9,363.1,363.9z"/>
		</g>
	</g>
	<g>
		<g>
			<path class="st22" d="M363.1,385.2h-45.4c-2.4,0-4.3,1.9-4.3,4.3c0,2.4,1.9,4.3,4.3,4.3h45.4c2.4,0,4.3-1.9,4.3-4.3
				C367.4,387.2,365.5,385.2,363.1,385.2z"/>
		</g>
	</g>
	<g>
		<g>
			<path class="st22" d="M363.1,406.6h-45.4c-2.4,0-4.3,1.9-4.3,4.3s1.9,4.3,4.3,4.3h45.4c2.4,0,4.3-1.9,4.3-4.3
				S365.5,406.6,363.1,406.6z"/>
		</g>
	</g>
</g>
</svg>
