<svg height="511pt" viewBox="-58 1 511 511.999" width="511pt" xmlns="http://www.w3.org/2000/svg"><path d="m392.527344 431.265625-21.027344-35.050781 21.023438-35.050782c4.800781-7.996093 4.921874-17.617187.324218-25.734374-4.59375-8.117188-12.90625-12.960938-22.234375-12.960938h-24.4375v-270.570312c0-28.617188-23.28125-51.898438-51.898437-51.898438h-176.113282c-7.40625 0-14.625 1.753906-21.117187 4.996094-.035156.015625-.070313.027344-.105469.042968-.039062.023438-.074218.042969-.113281.0625-.382813.195313-.757813.402344-1.132813.605469-.324218.175781-.648437.347657-.96875.527344-.335937.191406-.660156.390625-.992187.589844-.363281.21875-.726563.441406-1.082031.667969-.285156.183593-.566406.371093-.847656.5625-.394532.261718-.785157.53125-1.171876.808593-.246093.175781-.492187.355469-.738281.539063-.410156.304687-.8125.621094-1.214843.9375-.21875.175781-.433594.347656-.648438.523437-.417969.347657-.828125.703125-1.234375 1.0625-.191406.171875-.386719.335938-.574219.511719-.429687.394531-.851562.800781-1.265625 1.210938-.15625.15625-.316406.300781-.46875.457031-.5625.574219-1.113281 1.15625-1.648437 1.757812l-23.46875 26.402344-46.9375 52.800781c-.0625.070313-.121094.144532-.183594.21875-.390625.445313-.777344.894532-1.152344 1.355469-.183594.226563-.359375.460937-.539062.691406-.242188.308594-.484375.617188-.71875.929688-.222656.296875-.429688.597656-.644532.898437-.175781.25-.355468.496094-.527343.75-.242188.359375-.476563.722656-.710938 1.085938-.121093.195312-.25.386718-.371093.582031-.261719.425781-.515626.855469-.761719 1.285156-.078125.132813-.15625.265625-.230469.402344-.277344.488281-.542969.984375-.800781 1.484375-.039063.070312-.074219.140625-.109375.210938-.285156.554687-.558594 1.117187-.816406 1.683593-.007813.011719-.011719.023438-.019532.035157-2.835937 6.15625-4.347656 12.890624-4.347656 19.785156v333.636718c0 28.617188 23.28125 51.898438 51.898438 51.898438h241.882812c25.242188 0 46.328125-18.125 50.945312-42.039062h25.390626c9.324218 0 17.636718-4.847657 22.234374-12.964844 4.59375-8.113282 4.472657-17.734375-.324218-25.730469zm-301.09375-394.964844v59.34375c0 3.667969-2.984375 6.652344-6.652344 6.652344h-52.015625zm202.84375 455.699219h-241.878906c-17.589844 0-31.902344-14.308594-31.902344-31.898438v-333.636718c0-1.402344.117187-2.796875.328125-4.167969h63.957031c14.695312 0 26.652344-11.957031 26.652344-26.652344v-74.789062c2.179687-.558594 4.441406-.855469 6.730468-.855469h176.113282c17.589844 0 31.898437 14.308594 31.898437 31.898438v270.570312h-175.417969c-13.046874 0-23.664062 10.617188-23.664062 23.664062v85.160157c0 21.320312 17.34375 38.667969 38.664062 38.667969h158.859376c-4.164063 12.777343-16.191407 22.039062-30.339844 22.039062zm81.167968-44.855469c-.480468.847657-1.910156 2.816407-4.832031 2.816407h-204.855469c-1.929687 0-3.792968-.292969-5.542968-.839844-7.59375-2.367188-13.125-9.464844-13.125-17.828125v-85.15625c0-2.023438 1.648437-3.667969 3.667968-3.667969h219.855469c2.921875 0 4.351563 1.96875 4.832031 2.816406.480469.84375 1.433594 3.085938-.070312 5.589844l-22.308594 37.191406c-3.015625 5.027344-3.015625 11.273438 0 16.292969l22.308594 37.191406c1.503906 2.507813.550781 4.746094.070312 5.59375zm0 0"/><path d="m176.308594 414.75c-2.109375 0-3.902344.769531-5.324219 2.285156-1.398437 1.488282-2.109375 3.296875-2.109375 5.375 0 2.082032.707031 3.890625 2.109375 5.378906 1.421875 1.515626 3.214844 2.285157 5.324219 2.285157 1.996094 0 3.742187-.785157 5.195312-2.328125 1.429688-1.519532 2.152344-3.3125 2.152344-5.335938 0-2.082031-.726562-3.894531-2.164062-5.390625-1.453126-1.503906-3.195313-2.269531-5.183594-2.269531zm0 0"/><path d="m215.964844 360.277344h-18.21875c-1.703125 0-3.117188.492187-4.214844 1.46875-1.128906 1.003906-1.726562 2.269531-1.726562 3.65625v58.914062c0 1.179688.429687 2.835938 2.46875 4.015625 1.371093.796875 3.027343 1.199219 4.921874 1.199219 1.828126 0 3.464844-.398438 4.859376-1.191406 2.09375-1.179688 2.53125-2.839844 2.53125-4.023438v-19.527344h8.652343c6.742188 0 12.269531-1.796874 16.425781-5.34375 4.226563-3.601562 6.371094-9.230468 6.371094-16.730468v-.542969c0-7.425781-2.0625-13.003906-6.128906-16.578125-4.007812-3.527344-9.375-5.316406-15.941406-5.316406zm7.289062 23.34375c0 3.03125-.699218 5.304687-2.082031 6.761718-1.378906 1.453126-3.320313 2.160157-5.933594 2.160157h-8.652343v-18.933594h8.652343c2.613281 0 4.554688.707031 5.933594 2.160156 1.382813 1.457031 2.082031 3.734375 2.082031 6.761719zm0 0"/><path d="m284.191406 365.625c-4.132812-3.546875-9.675781-5.347656-16.476562-5.347656h-16.042969c-1.835937 0-3.390625.46875-4.617187 1.386718-1.691407 1.273438-2.046876 2.734376-2.046876 3.738282v59.003906c0 1.003906.355469 2.46875 2.046876 3.734375 1.226562.921875 2.78125 1.390625 4.617187 1.390625h16.042969c6.804687 0 12.347656-1.800781 16.476562-5.347656 4.195313-3.605469 6.320313-9.292969 6.320313-16.90625v-24.746094c0-7.609375-2.125-13.300781-6.320313-16.90625zm-8.460937 41.652344c0 6.085937-2.546875 8.921875-8.015625 8.921875h-7.925782v-42.589844h7.925782c5.46875 0 8.015625 2.835937 8.015625 8.921875zm0 0"/><path d="m338.589844 360.277344h-31.632813c-1.675781 0-3.171875.417968-4.4375 1.238281-1.457031.941406-2.226562 2.316406-2.226562 3.976563v58.824218c0 1.179688.429687 2.835938 2.46875 4.015625 1.371093.796875 3.027343 1.199219 4.921875 1.199219 1.828125 0 3.464844-.398438 4.859375-1.191406 2.09375-1.179688 2.53125-2.839844 2.53125-4.023438v-23.335937h12.367187c1.640625 0 2.988282-.691407 3.902344-1.996094.8125-1.160156 1.222656-2.515625 1.222656-4.035156 0-1.636719-.410156-3.054688-1.222656-4.210938-.914062-1.308593-2.261719-2-3.902344-2h-12.367187v-15.128906h23.515625c1.671875 0 3.039062-.777344 3.949218-2.25.78125-1.261719 1.175782-2.777344 1.175782-4.507813 0-1.660156-.378906-3.125-1.125-4.355468-.878906-1.449219-2.261719-2.21875-4-2.21875zm0 0"/><path d="m91.839844 166h163.210937c5.523438 0 10-4.476562 10-10s-4.476562-10-10-10h-163.210937c-5.519532 0-10 4.476562-10 10s4.480468 10 10 10zm0 0"/><path d="m255.050781 206h-.023437c-5.523438 0-9.988282 4.476562-9.988282 10s4.488282 10 10.011719 10c5.523438 0 10-4.476562 10-10s-4.476562-10-10-10zm0 0"/><path d="m91.839844 226h123.210937c5.523438 0 10-4.476562 10-10s-4.476562-10-10-10h-123.210937c-5.519532 0-10 4.476562-10 10s4.480468 10 10 10zm0 0"/><path d="m265.050781 276c0-5.523438-4.476562-10-10-10h-163.210937c-5.519532 0-10 4.476562-10 10s4.480468 10 10 10h163.210937c5.523438 0 10-4.476562 10-10zm0 0"/></svg>