<?xml version="1.0" encoding="utf-8"?>
<!-- Generator: Adobe Illustrator 22.0.0, SVG Export Plug-In . SVG Version: 6.00 Build 0)  -->
<svg version="1.1" id="Capa_1" xmlns="http://www.w3.org/2000/svg" xmlns:xlink="http://www.w3.org/1999/xlink" x="0px" y="0px"
	 viewBox="0 0 60 60" style="enable-background:new 0 0 60 60;" xml:space="preserve">
<style type="text/css">
	.st0{fill:#989898;}
</style>
<g>
	<path class="st0" d="M45.6,29.2l-22-15c-0.3-0.2-0.7-0.2-1-0.1C22.2,14.3,22,14.6,22,15v30c0,0.4,0.2,0.7,0.5,0.9
		C22.7,46,22.8,46,23,46c0.2,0,0.4-0.1,0.6-0.2l22-15c0.3-0.2,0.4-0.5,0.4-0.8S45.8,29.4,45.6,29.2z M24,43.1V16.9L43.2,30L24,43.1z
		"/>
	<path class="st0" d="M30,0C13.5,0,0,13.5,0,30s13.5,30,30,30s30-13.5,30-30S46.5,0,30,0z M30,58C14.6,58,2,45.4,2,30S14.6,2,30,2
		s28,12.6,28,28S45.4,58,30,58z"/>
</g>
</svg>
