<?xml version="1.0" standalone="no"?>
<!DOCTYPE svg PUBLIC "-//W3C//DTD SVG 20010904//EN"
 "http://www.w3.org/TR/2001/REC-SVG-20010904/DTD/svg10.dtd">
<svg version="1.0" xmlns="http://www.w3.org/2000/svg"
 width="616.000000pt" height="616.000000pt" viewBox="0 0 616.000000 616.000000"
 preserveAspectRatio="xMidYMid meet">
<metadata>
Created by potrace 1.11, written by Peter Selinger 2001-2013
</metadata>
<g transform="translate(0.000000,616.000000) scale(0.100000,-0.100000)"
fill="#000000" stroke="none">
<path d="M780 5519 c0 -6 -4 -8 -9 -5 -5 4 -14 -15 -20 -41 -6 -27 -27 -106
-47 -178 -48 -179 -48 -176 -47 -210 0 -25 89 -279 148 -425 8 -19 42 -109 76
-200 33 -91 73 -185 87 -210 29 -52 70 -128 118 -219 19 -35 38 -69 43 -75 4
-6 30 -51 56 -101 26 -49 65 -121 86 -158 22 -38 39 -71 39 -74 0 -3 9 -18 21
-34 11 -16 17 -29 13 -29 -3 0 -1 -7 6 -15 14 -16 58 -95 87 -155 9 -19 20
-37 23 -40 15 -12 19 -43 8 -63 -7 -12 -13 -27 -14 -33 -1 -6 -16 -41 -33 -78
-17 -37 -31 -71 -31 -76 0 -4 -9 -25 -19 -47 -11 -21 -39 -83 -62 -138 -68
-164 -78 -182 -117 -212 -20 -15 -46 -35 -57 -44 -11 -10 -40 -34 -65 -54 -25
-20 -54 -44 -65 -53 -18 -15 -53 -44 -189 -155 -22 -18 -54 -43 -72 -57 -18
-14 -33 -28 -34 -32 0 -14 43 -57 52 -52 5 3 7 1 6 -4 -4 -12 59 -82 72 -82 6
0 10 -4 10 -9 0 -5 44 -54 98 -109 53 -55 192 -198 307 -317 116 -119 278
-287 362 -373 134 -138 155 -164 174 -217 12 -33 26 -65 31 -72 5 -6 39 -24
76 -39 37 -16 69 -32 70 -36 2 -5 11 -8 19 -8 8 0 32 -9 52 -20 76 -41 356
-161 410 -175 31 -9 103 -29 161 -45 58 -15 131 -35 163 -44 102 -28 172 -47
187 -51 8 -2 17 -4 20 -5 3 -1 10 -3 15 -5 6 -1 12 -3 15 -4 3 -1 45 -13 94
-26 99 -26 75 -28 286 30 52 14 102 28 110 29 8 2 40 11 71 20 31 9 65 19 75
21 11 2 37 9 59 15 22 6 47 13 55 15 8 2 16 4 18 5 1 2 5 3 10 4 4 1 16 5 27
9 11 3 31 8 45 11 51 9 157 46 218 76 34 16 64 30 67 30 3 0 42 17 87 39 46
21 133 60 193 86 61 27 116 53 123 58 14 11 35 54 52 110 7 21 18 41 26 44 8
3 14 8 14 12 0 4 57 65 128 137 70 72 244 251 387 399 143 147 299 308 347
357 47 48 85 88 83 88 -1 0 20 23 48 50 31 31 44 50 35 50 -9 0 -18 3 -20 8
-1 4 -28 28 -58 52 -30 25 -57 47 -60 50 -3 3 -41 35 -85 70 -98 80 -111 90
-138 114 -12 10 -38 30 -57 45 -19 14 -51 41 -70 58 -19 18 -38 33 -42 33 -5
0 -8 7 -8 16 0 9 -7 30 -15 47 -8 18 -59 140 -114 272 l-100 239 32 61 c18 33
35 62 40 63 4 2 7 8 7 12 0 11 158 301 171 314 5 6 9 18 9 28 0 10 4 18 9 18
5 0 14 15 22 33 7 17 15 34 18 37 4 3 17 25 29 50 13 25 35 65 49 90 14 25 43
79 65 120 23 41 56 102 74 135 18 33 33 62 33 65 0 3 4 18 10 33 6 16 11 30
11 31 0 2 8 21 17 42 9 22 18 45 19 52 2 10 84 232 111 302 4 8 7 17 8 20 0 3
11 32 24 65 13 33 24 65 25 70 2 6 8 23 14 38 7 15 15 39 18 52 3 14 9 25 13
25 7 0 -96 398 -114 442 -4 11 -14 15 -28 12 -12 -2 -51 -7 -87 -10 -36 -3
-90 -7 -120 -9 -30 -3 -75 -6 -100 -8 -25 -2 -55 -8 -66 -15 -25 -13 -323
-216 -341 -232 -7 -5 -16 -10 -22 -10 -5 0 -11 -3 -13 -7 -5 -12 -95 -73 -107
-73 -5 0 -14 -6 -18 -13 -4 -7 -26 -24 -48 -37 -22 -13 -45 -29 -51 -35 -6 -6
-41 -30 -77 -54 -56 -36 -80 -62 -152 -162 -47 -66 -85 -122 -85 -124 0 -3 -6
-13 -14 -22 -27 -33 -81 -108 -110 -153 -17 -25 -35 -50 -40 -55 -6 -6 -15
-18 -21 -27 -27 -44 -92 -135 -107 -152 -10 -11 -18 -24 -18 -28 0 -5 -4 -7
-9 -3 -5 3 -29 9 -53 14 -41 9 -217 48 -248 55 -19 5 -42 10 -155 36 -49 11
-108 25 -130 30 -22 6 -49 12 -60 15 -11 2 -50 10 -87 18 -37 8 -69 13 -70 11
-2 -1 -15 -5 -28 -8 -14 -2 -90 -18 -170 -35 -80 -18 -156 -34 -170 -36 -14
-3 -35 -7 -47 -10 -13 -3 -33 -7 -45 -10 -13 -3 -36 -8 -53 -11 -16 -3 -70
-14 -120 -25 -49 -12 -101 -23 -115 -25 -14 -3 -31 -7 -37 -9 -7 -2 -13 -1
-13 3 0 6 -231 336 -287 411 -10 13 -25 35 -33 50 -8 14 -17 28 -20 31 -3 3
-33 43 -67 90 -58 80 -87 112 -110 121 -11 4 -406 273 -483 329 -158 114 -223
152 -263 155 -23 2 -76 6 -117 10 -41 4 -97 9 -125 10 -27 2 -60 6 -72 9 -13
3 -23 0 -23 -5z"/>
</g>
</svg>
